<?xml version="1.0" encoding="UTF-8"?>
<!DOCTYPE svg PUBLIC "-//W3C//DTD SVG 1.1//EN" "http://www.w3.org/Graphics/SVG/1.1/DTD/svg11.dtd">
<!-- Creator: CorelDRAW 2019 (64-Bit) -->
<svg xmlns="http://www.w3.org/2000/svg" xml:space="preserve" width="29.2553mm" height="33.7344mm" version="1.1" style="shape-rendering:geometricPrecision; text-rendering:geometricPrecision; image-rendering:optimizeQuality; fill-rule:evenodd; clip-rule:evenodd"
viewBox="0 0 21.8 25.14"
 xmlns:xlink="http://www.w3.org/1999/xlink"
 xmlns:xodm="http://www.corel.com/coreldraw/odm/2003">
 <defs>
  <style type="text/css">
   <![CDATA[
    .str0 {stroke:#FEFEFE;stroke-width:0.06;stroke-miterlimit:22.9256}
    .fil1 {fill:none}
    .fil0 {fill:#FEFEFE}
    .fil2 {fill:#FEFEFE;fill-rule:nonzero}
   ]]>
  </style>
   <clipPath id="id0">
    <path d="M4.47 12.6l0 0c0.5,0 0.92,0.41 0.92,0.92l0 3.47c0,0.5 -0.41,0.92 -0.92,0.92l-0 0c-0.5,0 -0.92,-0.41 -0.92,-0.92l0 -3.47c0,-0.5 0.41,-0.92 0.92,-0.92z"/>
   </clipPath>
   <clipPath id="id1">
    <path d="M4.47 12.6l0 0c0.5,0 0.92,0.41 0.92,0.92l0 3.47c0,0.5 -0.41,0.92 -0.92,0.92l-0 0c-0.5,0 -0.92,-0.41 -0.92,-0.92l0 -3.47c0,-0.5 0.41,-0.92 0.92,-0.92z"/>
   </clipPath>
   <clipPath id="id2">
    <path d="M1.47 14.76l0 0c0.5,0 0.92,0.41 0.92,0.92l0 1.74c0,0.5 -0.41,0.92 -0.92,0.92l0 0c-0.5,0 -0.92,-0.41 -0.92,-0.92l0 -1.74c0,-0.5 0.41,-0.92 0.92,-0.92z"/>
   </clipPath>
   <clipPath id="id3">
    <path d="M1.47 14.76l0 0c0.5,0 0.92,0.41 0.92,0.92l0 1.74c0,0.5 -0.41,0.92 -0.92,0.92l0 0c-0.5,0 -0.92,-0.41 -0.92,-0.92l0 -1.74c0,-0.5 0.41,-0.92 0.92,-0.92z"/>
   </clipPath>
   <clipPath id="id4">
    <path d="M17.07 12.66l0 0c0.5,0 0.92,0.41 0.92,0.92l0 3.47c0,0.5 -0.41,0.92 -0.92,0.92l-0 0c-0.5,0 -0.92,-0.41 -0.92,-0.92l0 -3.47c0,-0.5 0.41,-0.92 0.92,-0.92z"/>
   </clipPath>
   <clipPath id="id5">
    <path d="M17.07 12.66l0 0c0.5,0 0.92,0.41 0.92,0.92l0 3.47c0,0.5 -0.41,0.92 -0.92,0.92l-0 0c-0.5,0 -0.92,-0.41 -0.92,-0.92l0 -3.47c0,-0.5 0.41,-0.92 0.92,-0.92z"/>
   </clipPath>
   <clipPath id="id6">
    <path d="M20.34 14.8l0 0c0.5,0 0.92,0.41 0.92,0.92l0 1.74c0,0.5 -0.41,0.92 -0.92,0.92l0 0c-0.5,0 -0.92,-0.41 -0.92,-0.92l0 -1.74c0,-0.5 0.41,-0.92 0.92,-0.92z"/>
   </clipPath>
   <clipPath id="id7">
    <path d="M20.34 14.8l0 0c0.5,0 0.92,0.41 0.92,0.92l0 1.74c0,0.5 -0.41,0.92 -0.92,0.92l0 0c-0.5,0 -0.92,-0.41 -0.92,-0.92l0 -1.74c0,-0.5 0.41,-0.92 0.92,-0.92z"/>
   </clipPath>
   <clipPath id="id8">
    <path d="M1.85 11.28c1.88,-3.25 5.98,-5.17 8.9,-5.17 3.1,0 6.97,1.7 9.2,5.34 0.19,0.68 -0.5,1.29 -1.17,0.98 -2.04,-3.2 -4.95,-4.64 -7.92,-4.74 -4.39,-0.07 -6.65,3.16 -7.89,4.74 -0.46,0.12 -1.28,0.09 -1.13,-1.15z"/>
   </clipPath>
   <clipPath id="id9">
    <path d="M1.85 11.28c1.88,-3.25 5.98,-5.17 8.9,-5.17 3.1,0 6.97,1.7 9.2,5.34 0.19,0.68 -0.5,1.29 -1.17,0.98 -2.04,-3.2 -4.95,-4.64 -7.92,-4.74 -4.39,-0.07 -6.65,3.16 -7.89,4.74 -0.46,0.12 -1.28,0.09 -1.13,-1.15z"/>
   </clipPath>
 </defs>
 <g id="图层_x0020_1">
  <metadata id="CorelCorpID_0Corel-Layer"/>
  <path class="fil0" d="M4.47 12.6l0 0c0.5,0 0.92,0.41 0.92,0.92l0 3.47c0,0.5 -0.41,0.92 -0.92,0.92l-0 0c-0.5,0 -0.92,-0.41 -0.92,-0.92l0 -3.47c0,-0.5 0.41,-0.92 0.92,-0.92z"/>
  <g style="clip-path:url(#id0)">
  </g>
  <path id="1" class="fil1" d="M4.47 12.6l0 0c0.5,0 0.92,0.41 0.92,0.92l0 3.47c0,0.5 -0.41,0.92 -0.92,0.92l-0 0c-0.5,0 -0.92,-0.41 -0.92,-0.92l0 -3.47c0,-0.5 0.41,-0.92 0.92,-0.92z"/>
  <g style="clip-path:url(#id1)">
   <path id="2" class="fil1 str0" d="M3.56 12.6l1.84 5.31m0 -5.31l-1.84 5.31"/>
  </g>
  <path class="fil0" d="M1.47 14.76l0 0c0.5,0 0.92,0.41 0.92,0.92l0 1.74c0,0.5 -0.41,0.92 -0.92,0.92l0 0c-0.5,0 -0.92,-0.41 -0.92,-0.92l0 -1.74c0,-0.5 0.41,-0.92 0.92,-0.92z"/>
  <g style="clip-path:url(#id2)">
  </g>
  <path id="1" class="fil1" d="M1.47 14.76l0 0c0.5,0 0.92,0.41 0.92,0.92l0 1.74c0,0.5 -0.41,0.92 -0.92,0.92l0 0c-0.5,0 -0.92,-0.41 -0.92,-0.92l0 -1.74c0,-0.5 0.41,-0.92 0.92,-0.92z"/>
  <g style="clip-path:url(#id3)">
   <path id="2" class="fil1 str0" d="M0.56 14.76l1.84 3.58m0 -3.58l-1.84 3.58"/>
  </g>
  <path class="fil0" d="M17.07 12.66l0 0c0.5,0 0.92,0.41 0.92,0.92l0 3.47c0,0.5 -0.41,0.92 -0.92,0.92l-0 0c-0.5,0 -0.92,-0.41 -0.92,-0.92l0 -3.47c0,-0.5 0.41,-0.92 0.92,-0.92z"/>
  <g style="clip-path:url(#id4)">
  </g>
  <path id="1" class="fil1" d="M17.07 12.66l0 0c0.5,0 0.92,0.41 0.92,0.92l0 3.47c0,0.5 -0.41,0.92 -0.92,0.92l-0 0c-0.5,0 -0.92,-0.41 -0.92,-0.92l0 -3.47c0,-0.5 0.41,-0.92 0.92,-0.92z"/>
  <g style="clip-path:url(#id5)">
   <path id="2" class="fil1 str0" d="M16.16 12.66l1.84 5.31m0 -5.31l-1.84 5.31"/>
  </g>
  <path class="fil0" d="M20.34 14.8l0 0c0.5,0 0.92,0.41 0.92,0.92l0 1.74c0,0.5 -0.41,0.92 -0.92,0.92l0 0c-0.5,0 -0.92,-0.41 -0.92,-0.92l0 -1.74c0,-0.5 0.41,-0.92 0.92,-0.92z"/>
  <g style="clip-path:url(#id6)">
  </g>
  <path id="1" class="fil1" d="M20.34 14.8l0 0c0.5,0 0.92,0.41 0.92,0.92l0 1.74c0,0.5 -0.41,0.92 -0.92,0.92l0 0c-0.5,0 -0.92,-0.41 -0.92,-0.92l0 -1.74c0,-0.5 0.41,-0.92 0.92,-0.92z"/>
  <g style="clip-path:url(#id7)">
   <path id="2" class="fil1 str0" d="M19.42 14.8l1.84 3.58m0 -3.58l-1.84 3.58"/>
  </g>
  <path class="fil0" d="M1.85 11.28c1.88,-3.25 5.98,-5.17 8.9,-5.17 3.1,0 6.97,1.7 9.2,5.34 0.19,0.68 -0.5,1.29 -1.17,0.98 -2.04,-3.2 -4.95,-4.64 -7.92,-4.74 -4.39,-0.07 -6.65,3.16 -7.89,4.74 -0.46,0.12 -1.28,0.09 -1.13,-1.15z"/>
  <g style="clip-path:url(#id8)">
  </g>
  <path id="1" class="fil1" d="M1.85 11.28c1.88,-3.25 5.98,-5.17 8.9,-5.17 3.1,0 6.97,1.7 9.2,5.34 0.19,0.68 -0.5,1.29 -1.17,0.98 -2.04,-3.2 -4.95,-4.64 -7.92,-4.74 -4.39,-0.07 -6.65,3.16 -7.89,4.74 -0.46,0.12 -1.28,0.09 -1.13,-1.15z"/>
  <g style="clip-path:url(#id9)">
   <path id="2" class="fil1 str0" d="M1.84 6.11l18.15 6.4m0 -6.4l-18.15 6.4"/>
  </g>
  <path class="fil2" d="M10.34 15.78c0,0.24 -0.05,0.45 -0.14,0.62 -0.09,0.17 -0.22,0.3 -0.38,0.4 -0.16,0.1 -0.35,0.17 -0.56,0.22 -0.21,0.05 -0.44,0.07 -0.69,0.07 -0.2,0 -0.4,-0.02 -0.59,-0.05 -0.19,-0.03 -0.38,-0.08 -0.55,-0.16 -0.17,-0.07 -0.32,-0.18 -0.46,-0.3 -0.04,-0.03 -0.07,-0.07 -0.1,-0.11 -0.06,-0.08 -0.08,-0.17 -0.05,-0.27 0.03,-0.09 0.1,-0.16 0.2,-0.18 0,-0 0,-0 0,-0 0.13,-0.03 0.26,-0.07 0.39,-0.11 0.05,-0.01 0.09,-0.03 0.14,-0.04 0.11,-0.03 0.22,-0 0.3,0.08 0.05,0.06 0.1,0.1 0.17,0.14 0.12,0.06 0.27,0.09 0.47,0.09 0.2,0 0.37,-0.03 0.51,-0.1 0.14,-0.07 0.21,-0.16 0.21,-0.29 0,-0.11 -0.05,-0.21 -0.17,-0.3 -0.11,-0.09 -0.3,-0.13 -0.56,-0.13 -0.15,0 -0.29,0.03 -0.43,0.08 -0.09,0.04 -0.17,0.09 -0.23,0.15 -0.05,0.06 -0.13,0.09 -0.21,0.09l-0.57 0c-0.09,0 -0.16,-0.04 -0.22,-0.1 -0.05,-0.07 -0.07,-0.15 -0.06,-0.23 0.02,-0.1 0.04,-0.2 0.06,-0.31 0.04,-0.23 0.08,-0.46 0.11,-0.7 0.02,-0.14 0.03,-0.26 0.04,-0.39 0.01,-0.14 0.13,-0.26 0.28,-0.26l2.68 0c0.15,0 0.28,0.13 0.28,0.28l0 0.32c0,0.08 -0.03,0.15 -0.09,0.2 -0.06,0.05 -0.13,0.08 -0.21,0.08 -0.14,-0.01 -0.28,-0.01 -0.42,-0.02 -0.23,-0.01 -0.46,-0.01 -0.7,-0.01 -0.18,-0 -0.37,-0 -0.57,-0 -0.14,-0 -0.25,0.1 -0.27,0.23l-0 0.03c0.13,-0.04 0.27,-0.07 0.41,-0.09 0.14,-0.02 0.27,-0.03 0.4,-0.03 0.36,0 0.66,0.05 0.89,0.15 0.23,0.1 0.41,0.23 0.52,0.39 0.11,0.16 0.17,0.34 0.17,0.54zm0.99 1.31c-0.13,0 -0.25,-0.05 -0.34,-0.14 -0.09,-0.1 -0.14,-0.21 -0.14,-0.35 0,-0.13 0.05,-0.25 0.14,-0.34 0.09,-0.09 0.21,-0.14 0.34,-0.14 0.09,0 0.17,0.02 0.24,0.07 0.07,0.04 0.13,0.1 0.18,0.18 0.04,0.07 0.07,0.15 0.07,0.24 0,0.09 -0.02,0.17 -0.07,0.25 -0.04,0.07 -0.1,0.13 -0.18,0.18 -0.07,0.04 -0.15,0.07 -0.24,0.07zm1.83 -3.41l0 -0.01 0.72 0c0.15,0 0.28,0.13 0.28,0.28l0 1.96c0,0.08 0.03,0.15 0.08,0.2 0.06,0.05 0.12,0.08 0.2,0.08 0.01,-0 0.02,-0 0.04,-0 0.08,-0 0.15,0.02 0.2,0.08 0.06,0.05 0.08,0.12 0.08,0.2l0 0.3c0,0.15 -0.13,0.28 -0.28,0.28l-1.87 0c-0.15,0 -0.28,-0.13 -0.28,-0.28l0 -0.3c0,-0.08 0.03,-0.15 0.08,-0.2 0.06,-0.05 0.12,-0.08 0.2,-0.08 0.06,0 0.12,0 0.18,0 0.08,0 0.15,-0.02 0.2,-0.08 0.06,-0.05 0.08,-0.12 0.08,-0.2l0 -1.3c-0.06,0.14 -0.15,0.24 -0.27,0.31 -0.09,0.05 -0.18,0.05 -0.27,0.01 -0.09,-0.05 -0.14,-0.13 -0.15,-0.23 -0,-0.04 -0.01,-0.08 -0.01,-0.12 -0.01,-0.08 -0.02,-0.15 -0.03,-0.23 -0.02,-0.14 0.07,-0.28 0.21,-0.31 0.04,-0.01 0.07,-0.02 0.1,-0.03 0.09,-0.03 0.16,-0.06 0.22,-0.09 0.05,-0.03 0.1,-0.07 0.14,-0.11 0.04,-0.04 0.08,-0.09 0.13,-0.14z"/>
  <rect class="fil1" width="21.8" height="25.14"/>
 </g>
</svg>
