<?xml version="1.0" encoding="UTF-8"?>
<!DOCTYPE svg PUBLIC "-//W3C//DTD SVG 1.1//EN" "http://www.w3.org/Graphics/SVG/1.1/DTD/svg11.dtd">
<!-- Creator: CorelDRAW 2019 (64-Bit) -->
<svg xmlns="http://www.w3.org/2000/svg" xml:space="preserve" width="29.2553mm" height="27.2522mm" version="1.1" style="shape-rendering:geometricPrecision; text-rendering:geometricPrecision; image-rendering:optimizeQuality; fill-rule:evenodd; clip-rule:evenodd"
viewBox="0 0 21.42 19.95"
 xmlns:xlink="http://www.w3.org/1999/xlink"
 xmlns:xodm="http://www.corel.com/coreldraw/odm/2003">
 <defs>
  <style type="text/css">
   <![CDATA[
    .str0 {stroke:#A0D9F6;stroke-width:0.15;stroke-miterlimit:22.9256}
    .str2 {stroke:#FEFEFE;stroke-width:0.06;stroke-miterlimit:22.9256}
    .str1 {stroke:#A0D9F6;stroke-width:0.06;stroke-miterlimit:22.9256}
    .fil0 {fill:none}
    .fil2 {fill:#FEFEFE}
    .fil1 {fill:#A0D9F6}
    .fil3 {fill:#FEFEFE;fill-rule:nonzero}
   ]]>
  </style>
   <clipPath id="id0">
    <path d="M4.45 10.07l0 0c0.5,0 0.9,0.41 0.9,0.9l0 3.41c0,0.5 -0.41,0.9 -0.9,0.9l-0 0c-0.5,0 -0.9,-0.41 -0.9,-0.9l0 -3.41c0,-0.5 0.41,-0.9 0.9,-0.9z"/>
   </clipPath>
   <clipPath id="id1">
    <path d="M4.45 10.07l0 0c0.5,0 0.9,0.41 0.9,0.9l0 3.41c0,0.5 -0.41,0.9 -0.9,0.9l-0 0c-0.5,0 -0.9,-0.41 -0.9,-0.9l0 -3.41c0,-0.5 0.41,-0.9 0.9,-0.9z"/>
   </clipPath>
   <clipPath id="id2">
    <path d="M1.51 12.2l0 0c0.5,0 0.9,0.41 0.9,0.9l0 1.71c0,0.5 -0.41,0.9 -0.9,0.9l0 0c-0.5,0 -0.9,-0.41 -0.9,-0.9l0 -1.71c0,-0.5 0.41,-0.9 0.9,-0.9z"/>
   </clipPath>
   <clipPath id="id3">
    <path d="M1.51 12.2l0 0c0.5,0 0.9,0.41 0.9,0.9l0 1.71c0,0.5 -0.41,0.9 -0.9,0.9l0 0c-0.5,0 -0.9,-0.41 -0.9,-0.9l0 -1.71c0,-0.5 0.41,-0.9 0.9,-0.9z"/>
   </clipPath>
   <clipPath id="id4">
    <path d="M16.83 10.13l0 0c0.5,0 0.9,0.41 0.9,0.9l0 3.41c0,0.5 -0.41,0.9 -0.9,0.9l-0 0c-0.5,0 -0.9,-0.41 -0.9,-0.9l0 -3.41c0,-0.5 0.41,-0.9 0.9,-0.9z"/>
   </clipPath>
   <clipPath id="id5">
    <path d="M16.83 10.13l0 0c0.5,0 0.9,0.41 0.9,0.9l0 3.41c0,0.5 -0.41,0.9 -0.9,0.9l-0 0c-0.5,0 -0.9,-0.41 -0.9,-0.9l0 -3.41c0,-0.5 0.41,-0.9 0.9,-0.9z"/>
   </clipPath>
   <clipPath id="id6">
    <path d="M20.04 12.24l0 0c0.5,0 0.9,0.41 0.9,0.9l0 1.71c0,0.5 -0.41,0.9 -0.9,0.9l0 0c-0.5,0 -0.9,-0.41 -0.9,-0.9l0 -1.71c0,-0.5 0.41,-0.9 0.9,-0.9z"/>
   </clipPath>
   <clipPath id="id7">
    <path d="M20.04 12.24l0 0c0.5,0 0.9,0.41 0.9,0.9l0 1.71c0,0.5 -0.41,0.9 -0.9,0.9l0 0c-0.5,0 -0.9,-0.41 -0.9,-0.9l0 -1.71c0,-0.5 0.41,-0.9 0.9,-0.9z"/>
   </clipPath>
   <clipPath id="id8">
    <path d="M1.88 8.78c1.85,-3.19 5.88,-5.08 8.74,-5.08 3.04,0 6.85,1.67 9.04,5.25 0.19,0.67 -0.49,1.27 -1.15,0.96 -2,-3.15 -4.86,-4.56 -7.78,-4.65 -4.31,-0.07 -6.53,3.1 -7.75,4.65 -0.45,0.12 -1.26,0.09 -1.11,-1.13z"/>
   </clipPath>
   <clipPath id="id9">
    <path d="M1.88 8.78c1.85,-3.19 5.88,-5.08 8.74,-5.08 3.04,0 6.85,1.67 9.04,5.25 0.19,0.67 -0.49,1.27 -1.15,0.96 -2,-3.15 -4.86,-4.56 -7.78,-4.65 -4.31,-0.07 -6.53,3.1 -7.75,4.65 -0.45,0.12 -1.26,0.09 -1.11,-1.13z"/>
   </clipPath>
 </defs>
 <g id="图层_x0020_1">
  <metadata id="CorelCorpID_0Corel-Layer"/>
  <rect class="fil0" width="21.42" height="19.95"/>
  <path class="fil1" d="M4.45 10.07l0 0c0.5,0 0.9,0.41 0.9,0.9l0 3.41c0,0.5 -0.41,0.9 -0.9,0.9l-0 0c-0.5,0 -0.9,-0.41 -0.9,-0.9l0 -3.41c0,-0.5 0.41,-0.9 0.9,-0.9z"/>
  <g style="clip-path:url(#id0)">
  </g>
  <path id="1" class="fil0 str0" d="M4.45 10.07l0 0c0.5,0 0.9,0.41 0.9,0.9l0 3.41c0,0.5 -0.41,0.9 -0.9,0.9l-0 0c-0.5,0 -0.9,-0.41 -0.9,-0.9l0 -3.41c0,-0.5 0.41,-0.9 0.9,-0.9z"/>
  <g style="clip-path:url(#id1)">
   <path id="2" class="fil0 str1" d="M3.55 10.07l1.8 5.22m0 -5.22l-1.8 5.22"/>
  </g>
  <path class="fil1" d="M1.51 12.2l0 0c0.5,0 0.9,0.41 0.9,0.9l0 1.71c0,0.5 -0.41,0.9 -0.9,0.9l0 0c-0.5,0 -0.9,-0.41 -0.9,-0.9l0 -1.71c0,-0.5 0.41,-0.9 0.9,-0.9z"/>
  <g style="clip-path:url(#id2)">
  </g>
  <path id="1" class="fil0 str0" d="M1.51 12.2l0 0c0.5,0 0.9,0.41 0.9,0.9l0 1.71c0,0.5 -0.41,0.9 -0.9,0.9l0 0c-0.5,0 -0.9,-0.41 -0.9,-0.9l0 -1.71c0,-0.5 0.41,-0.9 0.9,-0.9z"/>
  <g style="clip-path:url(#id3)">
   <path id="2" class="fil0 str1" d="M0.61 12.2l1.8 3.51m0 -3.51l-1.8 3.51"/>
  </g>
  <path class="fil1" d="M16.83 10.13l0 0c0.5,0 0.9,0.41 0.9,0.9l0 3.41c0,0.5 -0.41,0.9 -0.9,0.9l-0 0c-0.5,0 -0.9,-0.41 -0.9,-0.9l0 -3.41c0,-0.5 0.41,-0.9 0.9,-0.9z"/>
  <g style="clip-path:url(#id4)">
  </g>
  <path id="1" class="fil0 str0" d="M16.83 10.13l0 0c0.5,0 0.9,0.41 0.9,0.9l0 3.41c0,0.5 -0.41,0.9 -0.9,0.9l-0 0c-0.5,0 -0.9,-0.41 -0.9,-0.9l0 -3.41c0,-0.5 0.41,-0.9 0.9,-0.9z"/>
  <g style="clip-path:url(#id5)">
   <path id="2" class="fil0 str1" d="M15.93 10.13l1.8 5.22m0 -5.22l-1.8 5.22"/>
  </g>
  <path class="fil1" d="M20.04 12.24l0 0c0.5,0 0.9,0.41 0.9,0.9l0 1.71c0,0.5 -0.41,0.9 -0.9,0.9l0 0c-0.5,0 -0.9,-0.41 -0.9,-0.9l0 -1.71c0,-0.5 0.41,-0.9 0.9,-0.9z"/>
  <g style="clip-path:url(#id6)">
  </g>
  <path id="1" class="fil0 str0" d="M20.04 12.24l0 0c0.5,0 0.9,0.41 0.9,0.9l0 1.71c0,0.5 -0.41,0.9 -0.9,0.9l0 0c-0.5,0 -0.9,-0.41 -0.9,-0.9l0 -1.71c0,-0.5 0.41,-0.9 0.9,-0.9z"/>
  <g style="clip-path:url(#id7)">
   <path id="2" class="fil0 str1" d="M19.14 12.24l1.8 3.51m0 -3.51l-1.8 3.51"/>
  </g>
  <path class="fil2" d="M1.88 8.78c1.85,-3.19 5.88,-5.08 8.74,-5.08 3.04,0 6.85,1.67 9.04,5.25 0.19,0.67 -0.49,1.27 -1.15,0.96 -2,-3.15 -4.86,-4.56 -7.78,-4.65 -4.31,-0.07 -6.53,3.1 -7.75,4.65 -0.45,0.12 -1.26,0.09 -1.11,-1.13z"/>
  <g style="clip-path:url(#id8)">
  </g>
  <path id="1" class="fil0" d="M1.88 8.78c1.85,-3.19 5.88,-5.08 8.74,-5.08 3.04,0 6.85,1.67 9.04,5.25 0.19,0.67 -0.49,1.27 -1.15,0.96 -2,-3.15 -4.86,-4.56 -7.78,-4.65 -4.31,-0.07 -6.53,3.1 -7.75,4.65 -0.45,0.12 -1.26,0.09 -1.11,-1.13z"/>
  <g style="clip-path:url(#id9)">
   <path id="2" class="fil0 str2" d="M1.86 3.7l17.84 6.29m0 -6.29l-17.84 6.29"/>
  </g>
  <path class="fil3" d="M6.9 11.16l2.71 0c0.15,0 0.27,0.12 0.27,0.27l0 0.23c0,0.06 -0.01,0.1 -0.04,0.15 -0.53,0.81 -0.95,1.63 -1.26,2.45 -0.04,0.11 -0.14,0.18 -0.26,0.18l-0.61 0c-0.1,0 -0.18,-0.04 -0.23,-0.12 -0.05,-0.08 -0.06,-0.17 -0.02,-0.26 0.12,-0.28 0.26,-0.55 0.4,-0.83 0.14,-0.26 0.29,-0.53 0.46,-0.79 0.05,-0.09 0.06,-0.19 0.01,-0.28 -0.05,-0.09 -0.14,-0.14 -0.24,-0.14 -0.16,0 -0.32,0 -0.48,0 -0.23,0 -0.47,0.01 -0.7,0.02 -0.08,0 -0.15,-0.02 -0.2,-0.08 -0.06,-0.05 -0.09,-0.12 -0.09,-0.2l0 -0.33c0,-0.15 0.12,-0.27 0.27,-0.27zm3.84 3.32c-0.13,0 -0.24,-0.05 -0.34,-0.14 -0.09,-0.09 -0.14,-0.21 -0.14,-0.34 0,-0.13 0.05,-0.24 0.14,-0.34 0.09,-0.09 0.21,-0.14 0.34,-0.14 0.09,0 0.17,0.02 0.24,0.07 0.07,0.04 0.13,0.1 0.17,0.17 0.04,0.07 0.07,0.15 0.07,0.24 0,0.09 -0.02,0.17 -0.07,0.24 -0.04,0.07 -0.1,0.13 -0.17,0.18 -0.07,0.04 -0.15,0.07 -0.24,0.07zm1.8 -3.35l0 -0.01 0.71 0c0.15,0 0.27,0.12 0.27,0.27l0 1.93c0,0.08 0.03,0.14 0.08,0.2 0.06,0.05 0.12,0.08 0.2,0.08 0.01,-0 0.02,-0 0.04,-0 0.08,-0 0.14,0.02 0.2,0.08 0.06,0.05 0.08,0.12 0.08,0.2l0 0.29c0,0.15 -0.12,0.27 -0.27,0.27l-1.84 0c-0.15,0 -0.27,-0.12 -0.27,-0.27l0 -0.3c0,-0.08 0.03,-0.14 0.08,-0.2 0.05,-0.05 0.12,-0.08 0.2,-0.08 0.06,0 0.12,0 0.17,0 0.08,0 0.14,-0.02 0.2,-0.08 0.05,-0.05 0.08,-0.12 0.08,-0.2l0 -1.28c-0.06,0.13 -0.15,0.24 -0.27,0.31 -0.08,0.05 -0.18,0.05 -0.27,0.01 -0.09,-0.04 -0.14,-0.12 -0.15,-0.22 -0,-0.04 -0.01,-0.08 -0.01,-0.11 -0.01,-0.08 -0.02,-0.15 -0.03,-0.23 -0.02,-0.14 0.07,-0.27 0.21,-0.31 0.04,-0.01 0.07,-0.02 0.1,-0.03 0.09,-0.03 0.16,-0.06 0.21,-0.09 0.05,-0.03 0.1,-0.07 0.14,-0.11 0.04,-0.04 0.08,-0.09 0.12,-0.14z"/>
 </g>
</svg>
