<?xml version="1.0" encoding="UTF-8"?>
<!DOCTYPE svg PUBLIC "-//W3C//DTD SVG 1.1//EN" "http://www.w3.org/Graphics/SVG/1.1/DTD/svg11.dtd">
<!-- Creator: CorelDRAW 2019 (64-Bit) -->
<svg xmlns="http://www.w3.org/2000/svg" xml:space="preserve" width="110.362mm" height="41.1427mm" version="1.1" style="shape-rendering:geometricPrecision; text-rendering:geometricPrecision; image-rendering:optimizeQuality; fill-rule:evenodd; clip-rule:evenodd"
viewBox="0 0 6260.81 2334.02"
 xmlns:xlink="http://www.w3.org/1999/xlink"
 xmlns:xodm="http://www.corel.com/coreldraw/odm/2003">
 <defs>
  <style type="text/css">
   <![CDATA[
    .str0 {stroke:#FEFEFE;stroke-width:11.35;stroke-miterlimit:22.9256}
    .str1 {stroke:#FEFEFE;stroke-width:4.32;stroke-miterlimit:22.9256}
    .fil0 {fill:none}
    .fil2 {fill:#FEFEFE}
    .fil1 {fill:#FEFEFE}
    .fil3 {fill:#FEFEFE;fill-rule:nonzero}
   ]]>
  </style>
 </defs>
 <g id="图层_x0020_1">
  <metadata id="CorelCorpID_0Corel-Layer"/>
  <rect class="fil0" x="-0" y="-0" width="5853.26" height="2334.02"/>
  <g id="_1885887710160">
   <path class="fil1 str0" d="M1079.98 1792.58c-1.11,139.19 -9.46,151.16 -70.12,234.02 13.42,-3.83 91.85,-53.05 118.42,-68.24 52.23,-29.86 65.17,-45.84 90.51,-103.84 31.33,-71.71 31,-517.74 16.19,-596.2 -45.81,-242.54 -178.78,-401.48 -383.12,-521.1l-483.64 -278.93c-87.85,-53.1 -99.3,-67.72 -246.09,38.29l182.3 113.36c7.66,4.19 14.32,7.48 20.95,11.06 169.96,91.77 471.69,254.46 577.75,381.18 211.26,252.4 179.56,455.23 176.87,790.41z"/>
   <path class="fil1 str0" d="M1228.44 807.3c214.39,244.1 180.52,471.16 180.74,778.28 0.16,218.61 -38.05,185.97 -68.54,250.5 273.14,-113.23 229.05,-273.93 229.43,-533.67 0.41,-283.33 -31.73,-413.02 -174.39,-586.02 -115.6,-140.18 -499.63,-333.46 -696.68,-446.87 -47.91,-27.57 -74.03,-60.65 -135.92,-30.54l-112.38 72.44 405.48 235.63c150.1,82.35 272.62,146.79 372.26,260.24z"/>
   <path class="fil1 str0" d="M261.57 627.24c-15.25,-14.01 -86.03,-58.9 -106.13,-67.39 -66.4,-28.01 -51.89,36.71 -51.24,99.82l-1.49 675.42c-0.58,330.9 -47.16,255.44 249.5,423.97l215.44 122.52c79.82,45.58 140.87,88.52 214.81,119.9 104.16,44.21 208.03,19.34 230.14,-67.46 -146.78,-39.54 -503.91,-272.92 -667.09,-362.95 -84.31,-46.51 -84.81,-65.8 -83.52,-181.51 1.83,-164.3 11.29,-660.75 -0.43,-762.33z"/>
   <path class="fil1 str0" d="M429.29 735.41c11.33,119.59 1.7,289.88 0.66,414.56 -1.45,175.43 -39.61,253.5 88.44,323.79 67.91,37.27 486.9,291.49 527.12,294.55l-2.94 -171.85c-120.83,-83.81 -263.63,-154.7 -386.74,-227.48 -94.82,-56.06 -63.52,-123.17 -64,-251.68 -0.36,-96.79 5.98,-208.61 -2.19,-303.25 -29.73,-20.72 -119.42,-76.56 -160.35,-78.63z"/>
  </g>
  <path class="fil2 str0" d="M2104.71 414.77c48.67,0 100.07,2.32 147.87,11.98 37.12,7.5 74.04,19.96 105.93,40.74 45.61,29.72 79.81,70.59 104.14,119.16 25.58,51.05 37.29,106.05 37.29,163.09 0,58.68 -10.78,115.98 -36.54,168.98 -24.08,49.54 -58.61,90.72 -104.9,120.87 -31.56,20.56 -68.34,32.77 -105.03,40.33 -48.11,9.9 -99.75,12.4 -148.77,12.4l-370.01 0 0 -677.55 370.01 0zm620.71 175.01c0,-44.56 5.6,-101.78 38.49,-135.32 33.22,-33.88 91.05,-39.68 135.92,-39.68l428.44 0c44.48,0 101.78,5.69 134.72,39.29 32.97,33.62 38.49,91.07 38.49,135.72l0 326.74c0,44.63 -5.41,103.12 -38.58,136.62 -33.08,33.41 -90.12,39.19 -134.63,39.19l-428.44 0c-45,0 -102.73,-5.87 -135.98,-39.93 -32.87,-33.68 -38.43,-91.23 -38.43,-135.88l0 -326.74zm1222.41 358.34l469.68 0 0 144.21 -630.7 0 0 -677.55 161.02 0 0 533.35zm1291.53 -204.96c6.21,4.77 12.05,10.17 17.45,16.26 25.57,28.8 34.51,65.48 34.51,103.24l0 79.08c0,46.46 -15.82,87.72 -54.61,115.23 -40.68,28.85 -97.29,35.35 -145.83,35.35l-491.54 0 0 -677.55 528.57 0c41.41,0 88.32,6.85 119.92,36.11 31.11,28.82 39.88,71.91 39.88,112.67l0 72.47c0,34.63 -7.99,69.7 -33.4,94.81 -4.64,4.58 -9.65,8.67 -14.95,12.33zm500.86 61.11l-350.68 -389.5 206.42 0 228.9 260.85 219.27 -260.85 203.98 0 -346.87 387.05 0 290.5 -161.02 0 0 -288.06zm-3844.49 -247.69l0 391.54 194.37 0c58.63,0 147.29,-6.1 194.36,-46.01 42.9,-36.38 52.07,-99.78 52.07,-152.77 0,-52.52 -9.94,-112.23 -52.9,-147.46 -47.73,-39.14 -134.65,-45.31 -193.52,-45.31l-194.37 0zm990.72 391.54l455.21 0 0 -391.54 -455.21 0 0 391.54zm1873.92 -392.75l0 114.06 329.31 0c5.99,0 25.62,-0.79 30.45,-5.1 3.51,-3.13 4.16,-17.17 4.16,-21.3l0 -62.47c0,-3.99 -0.61,-17.5 -3.38,-20.55 -5.3,-3.92 -24.95,-4.65 -31.23,-4.65l-329.31 0zm0 252.26l0 141.69 329.31 0c6.71,0 27.3,-0.91 32.37,-6.44 6.12,-6.68 7.05,-29.62 7.05,-37.97l0 -51.65c0,-8.37 -0.96,-31.98 -7.14,-38.66 -5.61,-6.07 -24.87,-6.96 -32.27,-6.96l-329.31 0z"/>
  <path class="fil3 str1" d="M2009.04 1594.64l-128.4 0 0 308.38 128.4 0c57.81,0 98.69,-12.09 122.53,-36.28 23.84,-24.05 35.81,-64.04 35.81,-119.97 0,-53.87 -12.2,-92.76 -36.5,-116.54 -24.3,-23.77 -64.96,-35.59 -121.84,-35.59zm8.41 -57.72c32.82,0 60.11,2.62 81.76,7.83 21.65,5.22 40.08,13.6 55.16,25.15 22.92,18 40.88,42.73 54.13,74.07 13.13,31.47 19.69,65.82 19.69,103.07 0,39.72 -6.45,75.45 -19.34,107.33 -13.01,31.75 -31.09,56.76 -54.47,75.04 -14.62,11.27 -32.82,19.52 -54.7,24.87 -21.77,5.36 -49.17,8.11 -82.22,8.11l-196.23 0 0 -425.47 196.23 0zm437.12 425.47l0 -425.47 59.42 0 0 425.47 -59.42 0zm653.28 -367.75l-279.15 0 0 308.38 279.15 0 0 -124.5 -144.41 0 0 -54.42 203.83 0 0 137.56c0,38.89 -5.87,65.42 -17.5,79.57 -11.75,14.15 -33.86,21.16 -66.21,21.16l-230.56 0c-32.7,0 -54.81,-7.14 -66.33,-21.3 -11.63,-14.3 -17.39,-40.82 -17.39,-79.44l0 -224.14c0,-38.62 5.76,-65 17.39,-79.29 11.52,-14.15 33.63,-21.31 66.33,-21.31l230.56 0c32.01,0 53.89,6.88 65.86,20.76 11.86,13.74 17.85,38.75 17.85,75.04l0 10.44 -59.42 14.16 0 -62.67zm305.61 367.75l0 -425.47 59.42 0 0 425.47 -59.42 0zm457.73 -367.75l0 367.75 -59.42 0 0 -367.75 -163.06 0 0 -57.72 386.24 0 0 57.72 -163.76 0zm348.1 208.61l192.09 0 -96.27 -217.68 -95.82 217.68zm-129.32 159.14l194.73 -425.47 63.8 0 198.19 425.47 -65.53 0 -45.49 -104.72 -241.37 0 -45.61 104.72 -58.73 0zm647.05 0l0 -425.47 59.42 0 0 366.11 270.16 0 0 59.37 -329.59 0z"/>
 </g>
</svg>
