<?xml version="1.0" encoding="UTF-8"?>
<!DOCTYPE svg PUBLIC "-//W3C//DTD SVG 1.1//EN" "http://www.w3.org/Graphics/SVG/1.1/DTD/svg11.dtd">
<!-- Creator: CorelDRAW 2019 (64-Bit) -->
<svg xmlns="http://www.w3.org/2000/svg" xml:space="preserve" width="114.476mm" height="41.1427mm" version="1.1" style="shape-rendering:geometricPrecision; text-rendering:geometricPrecision; image-rendering:optimizeQuality; fill-rule:evenodd; clip-rule:evenodd"
viewBox="0 0 6736.24 2421.01"
 xmlns:xlink="http://www.w3.org/1999/xlink"
 xmlns:xodm="http://www.corel.com/coreldraw/odm/2003">
 <defs>
  <style type="text/css">
   <![CDATA[
    .str0 {stroke:#FEFEFE;stroke-width:11.77;stroke-miterlimit:22.9256}
    .str1 {stroke:#FEFEFE;stroke-width:4.48;stroke-miterlimit:22.9256}
    .fil0 {fill:none}
    .fil2 {fill:#FEFEFE}
    .fil1 {fill:#FEFEFE}
    .fil3 {fill:#FEFEFE;fill-rule:nonzero}
   ]]>
  </style>
 </defs>
 <g id="图层_x0020_1">
  <metadata id="CorelCorpID_0Corel-Layer"/>
  <rect class="fil0" x="-0" y="-0" width="6071.43" height="2421.01"/>
  <g id="_1885889058928">
   <path class="fil1 str0" d="M1043.74 1859.4c-1.15,144.38 -9.82,156.79 -72.74,242.74 13.92,-3.97 95.27,-55.03 122.83,-70.78 54.17,-30.97 67.6,-47.55 93.88,-107.71 32.49,-74.39 32.15,-537.04 16.79,-618.42 -47.52,-251.58 -185.44,-416.44 -397.41,-540.53l-501.67 -289.33c-91.12,-55.08 -103,-70.24 -255.27,39.71l189.1 117.58c7.95,4.35 14.85,7.76 21.73,11.47 176.29,95.19 489.27,263.95 599.29,395.39 219.14,261.81 186.25,472.2 183.46,819.87z"/>
   <path class="fil1 str0" d="M1197.73 837.4c222.38,253.2 187.25,488.73 187.48,807.29 0.16,226.76 -39.47,192.9 -71.09,259.84 283.32,-117.45 237.59,-284.14 237.98,-553.56 0.43,-293.89 -32.91,-428.42 -180.89,-607.86 -119.91,-145.41 -518.25,-345.89 -722.64,-463.52 -49.7,-28.6 -76.79,-62.91 -140.99,-31.68l-116.57 75.14 420.59 244.42c155.69,85.42 282.78,152.26 386.14,269.94z"/>
   <path class="fil1 str0" d="M194.82 650.62c-15.82,-14.53 -89.24,-61.1 -110.09,-69.9 -68.87,-29.06 -53.82,38.08 -53.15,103.54l-1.55 700.6c-0.6,343.24 -48.92,264.96 258.8,439.77l223.47 127.09c82.79,47.28 146.12,91.82 222.82,124.37 108.04,45.86 215.78,20.06 238.72,-69.97 -152.25,-41.01 -522.69,-283.09 -691.96,-376.48 -87.45,-48.25 -87.97,-68.25 -86.63,-188.28 1.89,-170.42 11.72,-685.38 -0.45,-790.74z"/>
   <path class="fil1 str0" d="M368.79 762.82c11.76,124.04 1.76,300.68 0.69,430.01 -1.51,181.97 -41.09,262.95 91.74,335.85 70.44,38.66 505.05,302.36 546.77,305.53l-3.05 -178.26c-125.33,-86.93 -273.46,-160.46 -401.16,-235.96 -98.35,-58.15 -65.89,-127.76 -66.39,-261.06 -0.38,-100.39 6.2,-216.39 -2.27,-314.56 -30.83,-21.49 -123.87,-79.41 -166.32,-81.56z"/>
  </g>
  <path class="fil2 str0" d="M2106.67 430.23c50.48,0 103.8,2.41 153.38,12.43 38.5,7.78 76.8,20.7 109.88,42.26 47.31,30.82 82.78,73.23 108.03,123.6 26.53,52.95 38.68,110 38.68,169.17 0,60.86 -11.19,120.31 -37.9,175.27 -24.97,51.39 -60.79,94.1 -108.81,125.38 -32.74,21.33 -70.89,33.99 -108.94,41.83 -49.91,10.27 -103.47,12.86 -154.31,12.86l-383.8 0 0 -702.81 383.8 0zm643.85 181.53c0,-46.22 5.81,-105.58 39.92,-140.37 34.46,-35.14 94.45,-41.16 140.99,-41.16l444.41 0c46.14,0 105.58,5.9 139.74,40.75 34.19,34.87 39.92,94.47 39.92,140.78l0 338.91c0,46.3 -5.61,106.96 -40.02,141.71 -34.32,34.65 -93.47,40.65 -139.64,40.65l-444.41 0c-46.68,0 -106.56,-6.08 -141.04,-41.42 -34.09,-34.94 -39.87,-94.63 -39.87,-140.94l0 -338.91zm1267.97 371.7l487.19 0 0 149.58 -654.21 0 0 -702.81 167.02 0 0 553.22zm1339.67 -212.6c6.44,4.95 12.5,10.55 18.1,16.86 26.52,29.87 35.79,67.92 35.79,107.09l0 82.03c0,48.19 -16.41,90.99 -56.64,119.52 -42.2,29.93 -100.91,36.67 -151.27,36.67l-509.86 0 0 -702.81 548.28 0c42.96,0 91.61,7.1 124.39,37.46 32.27,29.9 41.36,74.59 41.36,116.86l0 75.17c0,35.92 -8.29,72.3 -34.65,98.34 -4.81,4.75 -10.01,9 -15.51,12.79zm519.52 63.39l-363.75 -404.01 214.11 0 237.44 270.57 227.45 -270.57 211.59 0 -359.8 401.48 0 301.33 -167.02 0 0 -298.79zm-3987.78 -256.93l0 406.14 201.62 0c60.82,0 152.78,-6.33 201.6,-47.72 44.5,-37.74 54.01,-103.5 54.01,-158.46 0,-54.48 -10.31,-116.41 -54.87,-152.95 -49.51,-40.6 -139.67,-47 -200.74,-47l-201.62 0zm1027.65 406.14l472.18 0 0 -406.14 -472.18 0 0 406.14zm1943.77 -407.39l0 118.31 341.59 0c6.21,0 26.57,-0.82 31.58,-5.29 3.64,-3.24 4.32,-17.81 4.32,-22.09l0 -64.79c0,-4.14 -0.63,-18.15 -3.51,-21.32 -5.5,-4.07 -25.88,-4.82 -32.39,-4.82l-341.59 0zm0 261.66l0 146.97 341.59 0c6.96,0 28.32,-0.95 33.58,-6.68 6.35,-6.93 7.31,-30.72 7.31,-39.39l0 -53.58c0,-8.69 -1,-33.18 -7.41,-40.1 -5.82,-6.3 -25.8,-7.22 -33.48,-7.22l-341.59 0z"/>
  <path class="fil3 str1" d="M2007.43 1622.09l-133.19 0 0 363.98 133.19 0c59.96,0 102.37,-14.27 127.1,-42.82 24.73,-28.38 37.14,-75.59 37.14,-141.6 0,-63.58 -12.66,-109.49 -37.86,-137.55 -25.2,-28.06 -67.38,-42.01 -126.38,-42.01zm8.72 -68.12c34.04,0 62.35,3.08 84.81,9.24 22.46,6.17 41.57,16.06 57.22,29.69 23.77,21.25 42.4,50.44 56.14,87.42 13.62,37.14 20.42,77.69 20.42,121.65 0,46.88 -6.69,89.05 -20.07,126.68 -13.5,37.47 -32.25,66.99 -56.5,88.56 -15.17,13.3 -34.04,23.03 -56.74,29.36 -22.58,6.33 -51.01,9.57 -85.29,9.57l-203.55 0 0 -502.17 203.55 0zm352.07 502.17l0 -502.17 61.63 0 0 502.17 -61.63 0zm576.27 -434.05l-289.55 0 0 363.98 289.55 0 0 -146.95 -149.79 0 0 -64.23 211.43 0 0 162.36c0,45.9 -6.1,77.21 -18.16,93.92 -12.19,16.71 -35.12,24.98 -68.68,24.98l-239.14 0c-33.92,0 -56.86,-8.43 -68.81,-25.14 -12.06,-16.87 -18.04,-48.18 -18.04,-93.76l0 -264.55c0,-45.57 5.97,-76.72 18.04,-93.59 11.95,-16.71 34.88,-25.14 68.81,-25.14l239.14 0c33.21,0 55.9,8.11 68.32,24.5 12.3,16.22 18.52,45.74 18.52,88.56l0 12.32 -61.64 16.71 0 -73.97zm215.65 434.05l0 -502.17 61.64 0 0 502.17 -61.64 0zm373.45 -434.05l0 434.05 -61.64 0 0 -434.05 -169.14 0 0 -68.12 400.64 0 0 68.12 -169.86 0zm259.73 246.22l199.25 0 -99.86 -256.93 -99.39 256.93zm-134.14 187.83l201.99 -502.17 66.18 0 205.57 502.17 -67.97 0 -47.19 -123.6 -250.37 0 -47.3 123.6 -60.92 0zm569.83 0l0 -502.17 61.64 0 0 432.1 280.23 0 0 70.07 -341.87 0zm932.75 -436.97l-212.39 0 0 175.17 212.39 0c15.17,0 25.57,-3.89 31.3,-11.84 5.73,-7.94 8.6,-21.57 8.6,-40.87l0 -69.75c0,-19.3 -2.87,-32.92 -8.6,-40.87 -5.73,-7.94 -16.13,-11.84 -31.3,-11.84zm-274.02 436.97l0 -502.17 298.15 0c27.71,0 47.66,7.63 59.84,23.03 12.18,15.41 18.28,40.23 18.28,74.45l0 112.08c0,33.9 -6.1,58.56 -18.28,73.97 -12.19,15.41 -32.13,23.03 -59.84,23.03l-236.52 0 0 195.61 -61.63 0zm503.77 0l0 -502.17 61.64 0 0 432.1 280.23 0 0 70.07 -341.87 0zm470.21 -502.17l0 432.1 269.48 0 0 -432.1 60.92 0 0 383.12c0,46.39 -5.97,77.86 -18.04,94.24 -12.06,16.54 -34.76,24.81 -68.09,24.81l-219.43 0c-33.45,0 -56.27,-8.43 -68.33,-25.14 -12.06,-16.87 -18.15,-48.18 -18.15,-93.92l0 -383.12 61.64 0zm814.94 68.12l-261.6 0 0 140.14 232.94 0c32.96,0 55.54,8.27 67.72,24.65 12.19,16.55 18.28,47.85 18.28,93.76l0 56.44c0,46.39 -5.97,77.86 -17.92,94.24 -11.95,16.54 -34.64,24.81 -68.08,24.81l-215.85 0c-33.45,0 -56.27,-8.27 -68.45,-24.98 -12.06,-16.71 -18.16,-48.01 -18.16,-94.07l0 -13.79 57.34 -18.01 0 80.78 275.22 0 0 -150.84 -232.22 0c-33.56,0 -56.26,-8.27 -68.21,-24.98 -11.83,-16.55 -17.79,-47.85 -17.79,-93.92l0 -43.63c0,-45.9 5.97,-77.2 17.79,-93.75 11.95,-16.71 34.64,-24.98 68.21,-24.98l196.86 0c32.97,0 55.67,8.11 68.21,24.5 12.55,16.22 18.75,44.76 18.75,85.64l0 10.54 -53.04 20.44 0 -72.99z"/>
 </g>
</svg>
