<?xml version="1.0" encoding="UTF-8"?>
<!DOCTYPE svg PUBLIC "-//W3C//DTD SVG 1.1//EN" "http://www.w3.org/Graphics/SVG/1.1/DTD/svg11.dtd">
<!-- Creator: CorelDRAW 2019 (64-Bit) -->
<svg xmlns="http://www.w3.org/2000/svg" xml:space="preserve" width="114.476mm" height="41.1427mm" version="1.1" style="shape-rendering:geometricPrecision; text-rendering:geometricPrecision; image-rendering:optimizeQuality; fill-rule:evenodd; clip-rule:evenodd"
viewBox="0 0 6736.24 2421.01"
 xmlns:xlink="http://www.w3.org/1999/xlink"
 xmlns:xodm="http://www.corel.com/coreldraw/odm/2003">
 <defs>
  <style type="text/css">
   <![CDATA[
    .str0 {stroke:#FEFEFE;stroke-width:11.77;stroke-miterlimit:22.9256}
    .str1 {stroke:#FEFEFE;stroke-width:4.48;stroke-miterlimit:22.9256}
    .fil0 {fill:none}
    .fil2 {fill:#FEFEFE}
    .fil1 {fill:#FEFEFE}
    .fil3 {fill:#FEFEFE;fill-rule:nonzero}
   ]]>
  </style>
 </defs>
 <g id="图层_x0020_1">
  <metadata id="CorelCorpID_0Corel-Layer"/>
  <rect class="fil0" x="-0" y="-0" width="6071.43" height="2421.01"/>
  <g id="_1886328830352">
   <path class="fil1 str0" d="M1043.74 1859.4c-1.15,144.38 -9.82,156.79 -72.74,242.74 13.92,-3.97 95.27,-55.03 122.83,-70.78 54.17,-30.97 67.6,-47.55 93.88,-107.71 32.49,-74.39 32.15,-537.04 16.79,-618.42 -47.52,-251.58 -185.44,-416.44 -397.41,-540.53l-501.67 -289.33c-91.12,-55.08 -103,-70.24 -255.27,39.71l189.1 117.58c7.95,4.35 14.85,7.76 21.73,11.47 176.29,95.19 489.27,263.95 599.29,395.39 219.14,261.81 186.25,472.2 183.46,819.87z"/>
   <path class="fil1 str0" d="M1197.73 837.4c222.38,253.2 187.25,488.73 187.48,807.29 0.16,226.76 -39.47,192.9 -71.09,259.84 283.32,-117.45 237.59,-284.14 237.98,-553.56 0.43,-293.89 -32.91,-428.42 -180.89,-607.86 -119.91,-145.41 -518.25,-345.89 -722.64,-463.52 -49.7,-28.6 -76.79,-62.91 -140.99,-31.68l-116.57 75.14 420.59 244.42c155.69,85.42 282.78,152.26 386.14,269.94z"/>
   <path class="fil1 str0" d="M194.82 650.62c-15.82,-14.53 -89.24,-61.1 -110.09,-69.9 -68.87,-29.06 -53.82,38.08 -53.15,103.54l-1.55 700.6c-0.6,343.24 -48.92,264.96 258.8,439.77l223.47 127.09c82.79,47.28 146.12,91.82 222.82,124.37 108.04,45.86 215.78,20.06 238.72,-69.97 -152.25,-41.01 -522.69,-283.09 -691.96,-376.48 -87.45,-48.25 -87.97,-68.25 -86.63,-188.28 1.89,-170.42 11.72,-685.38 -0.45,-790.74z"/>
   <path class="fil1 str0" d="M368.79 762.82c11.76,124.04 1.76,300.68 0.69,430.01 -1.51,181.97 -41.09,262.95 91.74,335.85 70.44,38.66 505.05,302.36 546.77,305.53l-3.05 -178.26c-125.33,-86.93 -273.46,-160.46 -401.16,-235.96 -98.35,-58.15 -65.89,-127.76 -66.39,-261.06 -0.38,-100.39 6.2,-216.39 -2.27,-314.56 -30.83,-21.49 -123.87,-79.41 -166.32,-81.56z"/>
  </g>
  <path class="fil2 str0" d="M2106.67 430.23c50.48,0 103.8,2.41 153.38,12.43 38.5,7.78 76.8,20.7 109.88,42.26 47.31,30.82 82.78,73.23 108.03,123.6 26.53,52.95 38.68,110 38.68,169.17 0,60.86 -11.19,120.31 -37.9,175.27 -24.97,51.39 -60.79,94.1 -108.81,125.38 -32.74,21.33 -70.89,33.99 -108.94,41.83 -49.91,10.27 -103.47,12.86 -154.31,12.86l-383.8 0 0 -702.81 383.8 0zm643.85 181.53c0,-46.22 5.81,-105.58 39.92,-140.37 34.46,-35.14 94.45,-41.16 140.99,-41.16l444.41 0c46.14,0 105.58,5.9 139.74,40.75 34.19,34.87 39.92,94.47 39.92,140.78l0 338.91c0,46.3 -5.61,106.96 -40.02,141.71 -34.32,34.65 -93.47,40.65 -139.64,40.65l-444.41 0c-46.68,0 -106.56,-6.08 -141.04,-41.42 -34.09,-34.94 -39.87,-94.63 -39.87,-140.94l0 -338.91zm1267.97 371.7l487.19 0 0 149.58 -654.21 0 0 -702.81 167.02 0 0 553.22zm1339.67 -212.6c6.44,4.95 12.5,10.55 18.1,16.86 26.52,29.87 35.79,67.92 35.79,107.09l0 82.03c0,48.19 -16.41,90.99 -56.64,119.52 -42.2,29.93 -100.91,36.67 -151.27,36.67l-509.86 0 0 -702.81 548.28 0c42.96,0 91.61,7.1 124.39,37.46 32.27,29.9 41.36,74.59 41.36,116.86l0 75.17c0,35.92 -8.29,72.3 -34.65,98.34 -4.81,4.75 -10.01,9 -15.51,12.79zm519.52 63.39l-363.75 -404.01 214.11 0 237.44 270.57 227.45 -270.57 211.59 0 -359.8 401.48 0 301.33 -167.02 0 0 -298.79zm-3987.78 -256.93l0 406.14 201.62 0c60.82,0 152.78,-6.33 201.6,-47.72 44.5,-37.74 54.01,-103.5 54.01,-158.46 0,-54.48 -10.31,-116.41 -54.87,-152.95 -49.51,-40.6 -139.67,-47 -200.74,-47l-201.62 0zm1027.65 406.14l472.18 0 0 -406.14 -472.18 0 0 406.14zm1943.77 -407.39l0 118.31 341.59 0c6.21,0 26.57,-0.82 31.58,-5.29 3.64,-3.24 4.32,-17.81 4.32,-22.09l0 -64.79c0,-4.14 -0.63,-18.15 -3.51,-21.32 -5.5,-4.07 -25.88,-4.82 -32.39,-4.82l-341.59 0zm0 261.66l0 146.97 341.59 0c6.96,0 28.32,-0.95 33.58,-6.68 6.35,-6.93 7.31,-30.72 7.31,-39.39l0 -53.58c0,-8.69 -1,-33.18 -7.41,-40.1 -5.82,-6.3 -25.8,-7.22 -33.48,-7.22l-341.59 0z"/>
  <path class="fil3 str1" d="M2007.43 1644.26l-133.19 0 0 319.88 133.19 0c59.96,0 102.37,-12.54 127.1,-37.63 24.73,-24.94 37.14,-66.43 37.14,-124.44 0,-55.88 -12.66,-96.22 -37.86,-120.88 -25.2,-24.66 -67.38,-36.92 -126.38,-36.92zm8.72 -59.87c34.04,0 62.35,2.71 84.81,8.13 22.46,5.42 41.57,14.11 57.22,26.09 23.77,18.67 42.4,44.33 56.14,76.83 13.62,32.64 20.42,68.28 20.42,106.91 0,41.2 -6.69,78.26 -20.07,111.33 -13.5,32.93 -32.25,58.87 -56.5,77.83 -15.17,11.69 -34.04,20.24 -56.74,25.8 -22.58,5.56 -51.01,8.41 -85.29,8.41l-203.55 0 0 -441.33 203.55 0zm352.07 441.33l0 -441.33 61.63 0 0 441.33 -61.63 0zm576.27 -381.46l-289.55 0 0 319.88 289.55 0 0 -129.15 -149.79 0 0 -56.45 211.43 0 0 142.69c0,40.34 -6.1,67.86 -18.16,82.54 -12.19,14.68 -35.12,21.95 -68.68,21.95l-239.14 0c-33.92,0 -56.86,-7.41 -68.81,-22.09 -12.06,-14.83 -18.04,-42.34 -18.04,-82.4l0 -232.49c0,-40.06 5.97,-67.42 18.04,-82.25 11.95,-14.68 34.88,-22.1 68.81,-22.1l239.14 0c33.21,0 55.9,7.13 68.32,21.53 12.3,14.25 18.52,40.2 18.52,77.83l0 10.83 -61.64 14.69 0 -65.01zm215.65 381.46l0 -441.33 61.64 0 0 441.33 -61.64 0zm373.45 -381.46l0 381.46 -61.64 0 0 -381.46 -169.14 0 0 -59.87 400.64 0 0 59.87 -169.86 0zm259.73 216.39l199.25 0 -99.86 -225.8 -99.39 225.8zm-134.14 165.07l201.99 -441.33 66.18 0 205.57 441.33 -67.97 0 -47.19 -108.62 -250.37 0 -47.3 108.62 -60.92 0zm569.83 0l0 -441.33 61.64 0 0 379.75 280.23 0 0 61.58 -341.87 0zm932.75 -384.02l-212.39 0 0 153.95 212.39 0c15.17,0 25.57,-3.42 31.3,-10.4 5.73,-6.98 8.6,-18.96 8.6,-35.92l0 -61.3c0,-16.96 -2.87,-28.93 -8.6,-35.92 -5.73,-6.98 -16.13,-10.4 -31.3,-10.4zm-274.02 384.02l0 -441.33 298.15 0c27.71,0 47.66,6.7 59.84,20.24 12.18,13.55 18.28,35.35 18.28,65.43l0 98.51c0,29.79 -6.1,51.46 -18.28,65.01 -12.19,13.54 -32.13,20.24 -59.84,20.24l-236.52 0 0 171.91 -61.63 0zm503.77 0l0 -441.33 61.64 0 0 379.75 280.23 0 0 61.58 -341.87 0zm470.21 -441.33l0 379.75 269.48 0 0 -379.75 60.92 0 0 336.71c0,40.77 -5.97,68.42 -18.04,82.82 -12.06,14.54 -34.76,21.81 -68.09,21.81l-219.43 0c-33.45,0 -56.27,-7.41 -68.33,-22.09 -12.06,-14.83 -18.15,-42.34 -18.15,-82.54l0 -336.71 61.64 0zm814.94 59.87l-261.6 0 0 123.17 232.94 0c32.96,0 55.54,7.27 67.72,21.66 12.19,14.54 18.28,42.06 18.28,82.4l0 49.61c0,40.77 -5.97,68.42 -17.92,82.82 -11.95,14.54 -34.64,21.81 -68.08,21.81l-215.85 0c-33.45,0 -56.27,-7.27 -68.45,-21.95 -12.06,-14.68 -18.16,-42.2 -18.16,-82.68l0 -12.12 57.34 -15.82 0 70.99 275.22 0 0 -132.56 -232.22 0c-33.56,0 -56.26,-7.27 -68.21,-21.95 -11.83,-14.54 -17.79,-42.06 -17.79,-82.54l0 -38.35c0,-40.34 5.97,-67.85 17.79,-82.39 11.95,-14.68 34.64,-21.95 68.21,-21.95l196.86 0c32.97,0 55.67,7.13 68.21,21.53 12.55,14.25 18.75,39.34 18.75,75.26l0 9.27 -53.04 17.96 0 -64.15z"/>
 </g>
</svg>
