<?xml version="1.0" encoding="UTF-8"?>
<!DOCTYPE svg PUBLIC "-//W3C//DTD SVG 1.1//EN" "http://www.w3.org/Graphics/SVG/1.1/DTD/svg11.dtd">
<!-- Creator: CorelDRAW 2019 (64-Bit) -->
<svg xmlns="http://www.w3.org/2000/svg" xml:space="preserve" width="110.362mm" height="41.1427mm" version="1.1" style="shape-rendering:geometricPrecision; text-rendering:geometricPrecision; image-rendering:optimizeQuality; fill-rule:evenodd; clip-rule:evenodd"
viewBox="0 0 6260.81 2334.02"
 xmlns:xlink="http://www.w3.org/1999/xlink"
 xmlns:xodm="http://www.corel.com/coreldraw/odm/2003">
 <defs>
  <style type="text/css">
   <![CDATA[
    .str0 {stroke:#FEFEFE;stroke-width:11.35;stroke-miterlimit:22.9256}
    .str1 {stroke:#FEFEFE;stroke-width:4.32;stroke-miterlimit:22.9256}
    .fil0 {fill:none}
    .fil2 {fill:#FEFEFE}
    .fil1 {fill:#FEFEFE}
    .fil3 {fill:#FEFEFE;fill-rule:nonzero}
   ]]>
  </style>
 </defs>
 <g id="图层_x0020_1">
  <metadata id="CorelCorpID_0Corel-Layer"/>
  <rect class="fil0" x="-0" y="-0" width="5853.26" height="2334.02"/>
  <g id="_1886235857024">
   <path class="fil1 str0" d="M1079.98 1792.58c-1.11,139.19 -9.46,151.16 -70.12,234.02 13.42,-3.83 91.85,-53.05 118.42,-68.24 52.23,-29.86 65.17,-45.84 90.51,-103.84 31.33,-71.71 31,-517.74 16.19,-596.2 -45.81,-242.54 -178.78,-401.48 -383.12,-521.1l-483.64 -278.93c-87.85,-53.1 -99.3,-67.72 -246.09,38.29l182.3 113.36c7.66,4.19 14.32,7.48 20.95,11.06 169.96,91.77 471.69,254.46 577.75,381.18 211.26,252.4 179.56,455.23 176.87,790.41z"/>
   <path class="fil1 str0" d="M1228.44 807.3c214.39,244.1 180.52,471.16 180.74,778.28 0.16,218.61 -38.05,185.97 -68.54,250.5 273.14,-113.23 229.05,-273.93 229.43,-533.67 0.41,-283.33 -31.73,-413.02 -174.39,-586.02 -115.6,-140.18 -499.63,-333.46 -696.68,-446.87 -47.91,-27.57 -74.03,-60.65 -135.92,-30.54l-112.38 72.44 405.48 235.63c150.1,82.35 272.62,146.79 372.26,260.24z"/>
   <path class="fil1 str0" d="M261.57 627.24c-15.25,-14.01 -86.03,-58.9 -106.13,-67.39 -66.4,-28.01 -51.89,36.71 -51.24,99.82l-1.49 675.42c-0.58,330.9 -47.16,255.44 249.5,423.97l215.44 122.52c79.82,45.58 140.87,88.52 214.81,119.9 104.16,44.21 208.03,19.34 230.14,-67.46 -146.78,-39.54 -503.91,-272.92 -667.09,-362.95 -84.31,-46.51 -84.81,-65.8 -83.52,-181.51 1.83,-164.3 11.29,-660.75 -0.43,-762.33z"/>
   <path class="fil1 str0" d="M429.29 735.41c11.33,119.59 1.7,289.88 0.66,414.56 -1.45,175.43 -39.61,253.5 88.44,323.79 67.91,37.27 486.9,291.49 527.12,294.55l-2.94 -171.85c-120.83,-83.81 -263.63,-154.7 -386.74,-227.48 -94.82,-56.06 -63.52,-123.17 -64,-251.68 -0.36,-96.79 5.98,-208.61 -2.19,-303.25 -29.73,-20.72 -119.42,-76.56 -160.35,-78.63z"/>
  </g>
  <path class="fil2 str0" d="M2104.71 414.77c48.67,0 100.07,2.32 147.87,11.98 37.12,7.5 74.04,19.96 105.93,40.74 45.61,29.72 79.81,70.59 104.14,119.16 25.58,51.05 37.29,106.05 37.29,163.09 0,58.68 -10.78,115.98 -36.54,168.98 -24.08,49.54 -58.61,90.72 -104.9,120.87 -31.56,20.56 -68.34,32.77 -105.03,40.33 -48.11,9.9 -99.75,12.4 -148.77,12.4l-370.01 0 0 -677.55 370.01 0zm620.71 175.01c0,-44.56 5.6,-101.78 38.49,-135.32 33.22,-33.88 91.05,-39.68 135.92,-39.68l428.44 0c44.48,0 101.78,5.69 134.72,39.29 32.97,33.62 38.49,91.07 38.49,135.72l0 326.74c0,44.63 -5.41,103.12 -38.58,136.62 -33.08,33.41 -90.12,39.19 -134.63,39.19l-428.44 0c-45,0 -102.73,-5.87 -135.98,-39.93 -32.87,-33.68 -38.43,-91.23 -38.43,-135.88l0 -326.74zm1222.41 358.34l469.68 0 0 144.21 -630.7 0 0 -677.55 161.02 0 0 533.35zm1291.53 -204.96c6.21,4.77 12.05,10.17 17.45,16.26 25.57,28.8 34.51,65.48 34.51,103.24l0 79.08c0,46.46 -15.82,87.72 -54.61,115.23 -40.68,28.85 -97.29,35.35 -145.83,35.35l-491.54 0 0 -677.55 528.57 0c41.41,0 88.32,6.85 119.92,36.11 31.11,28.82 39.88,71.91 39.88,112.67l0 72.47c0,34.63 -7.99,69.7 -33.4,94.81 -4.64,4.58 -9.65,8.67 -14.95,12.33zm500.86 61.11l-350.68 -389.5 206.42 0 228.9 260.85 219.27 -260.85 203.98 0 -346.87 387.05 0 290.5 -161.02 0 0 -288.06zm-3844.49 -247.69l0 391.54 194.37 0c58.63,0 147.29,-6.1 194.36,-46.01 42.9,-36.38 52.07,-99.78 52.07,-152.77 0,-52.52 -9.94,-112.23 -52.9,-147.46 -47.73,-39.14 -134.65,-45.31 -193.52,-45.31l-194.37 0zm990.72 391.54l455.21 0 0 -391.54 -455.21 0 0 391.54zm1873.92 -392.75l0 114.06 329.31 0c5.99,0 25.62,-0.79 30.45,-5.1 3.51,-3.13 4.16,-17.17 4.16,-21.3l0 -62.47c0,-3.99 -0.61,-17.5 -3.38,-20.55 -5.3,-3.92 -24.95,-4.65 -31.23,-4.65l-329.31 0zm0 252.26l0 141.69 329.31 0c6.71,0 27.3,-0.91 32.37,-6.44 6.12,-6.68 7.05,-29.62 7.05,-37.97l0 -51.65c0,-8.37 -0.96,-31.98 -7.14,-38.66 -5.61,-6.07 -24.87,-6.96 -32.27,-6.96l-329.31 0z"/>
  <path class="fil3 str1" d="M1947.16 1944.52l-198.13 -421.59 65.3 0 160.38 351.32 153.11 -351.32 60.14 0 -189.93 421.59 -50.88 0zm410.89 0l0 -421.59 60.5 0 0 421.59 -60.5 0zm611.14 -364.39l-256.75 0 0 117.65 228.62 0c32.36,0 54.52,6.94 66.47,20.7 11.96,13.89 17.94,40.17 17.94,78.71l0 47.39c0,38.94 -5.87,65.36 -17.59,79.12 -11.72,13.89 -34,20.84 -66.82,20.84l-211.85 0c-32.83,0 -55.22,-6.94 -67.18,-20.97 -11.84,-14.02 -17.82,-40.31 -17.82,-78.98l0 -11.57 56.28 -15.11 0 67.81 270.12 0 0 -126.64 -227.91 0c-32.94,0 -55.22,-6.94 -66.94,-20.97 -11.61,-13.89 -17.47,-40.17 -17.47,-78.84l0 -36.63c0,-38.54 5.86,-64.82 17.47,-78.71 11.73,-14.03 34,-20.97 66.94,-20.97l193.21 0c32.35,0 54.63,6.81 66.94,20.56 12.3,13.62 18.41,37.58 18.41,71.9l0 8.85 -52.06 17.16 0 -61.27zm292.37 364.39l0 -421.59 60.49 0 0 421.59 -60.49 0zm357.19 -58.83l300.36 0 0 -305.56 -300.36 0 0 305.56zm-60.49 -263.35c0,-38.13 5.86,-64.27 17.7,-78.3 11.85,-14.03 34.35,-21.11 67.53,-21.11l250.89 0c32.83,0 55.1,6.94 66.83,20.84 11.84,14.02 17.7,40.17 17.7,78.57l0 222.23c0,38.94 -5.86,65.36 -17.7,79.12 -11.73,13.89 -34,20.84 -66.83,20.84l-250.89 0c-33.18,0 -55.69,-7.08 -67.53,-21.25 -11.84,-14.02 -17.7,-40.31 -17.7,-78.71l0 -222.23zm657.56 322.18l0 -421.59 38.11 0 271.52 282.01c6.21,6.4 12.78,14.03 19.82,23.15 6.92,8.99 14.07,18.93 21.45,29.82 -1.87,-13.48 -3.17,-27.64 -4.1,-42.48 -0.94,-14.71 -1.41,-35.13 -1.41,-61.14l0 -231.36 55.57 0 0 421.59 -34 0 -278.79 -293.18c-1.29,-1.36 -3.4,-3.4 -6.1,-6.4 -13.83,-14.3 -24.03,-28.05 -30.6,-40.99 1.41,12.67 2.35,26.28 3.05,40.85 0.7,14.44 1.06,31.59 1.06,51.2l0 248.51 -55.57 0z"/>
 </g>
</svg>
