<?xml version="1.0" encoding="UTF-8"?>
<!DOCTYPE svg PUBLIC "-//W3C//DTD SVG 1.1//EN" "http://www.w3.org/Graphics/SVG/1.1/DTD/svg11.dtd">
<!-- Creator: CorelDRAW 2019 (64-Bit) -->
<svg xmlns="http://www.w3.org/2000/svg" xml:space="preserve" width="138.113mm" height="47.143mm" version="1.1" style="shape-rendering:geometricPrecision; text-rendering:geometricPrecision; image-rendering:optimizeQuality; fill-rule:evenodd; clip-rule:evenodd"
viewBox="0 0 16705.9 5702.35"
 xmlns:xlink="http://www.w3.org/1999/xlink"
 xmlns:xodm="http://www.corel.com/coreldraw/odm/2003">
 <defs>
  <style type="text/css">
   <![CDATA[
    .fil2 {fill:none}
    .fil0 {fill:#FEFEFE}
    .fil1 {fill:#FEFEFE;fill-rule:nonzero}
   ]]>
  </style>
 </defs>
 <g id="图层_x0020_1">
  <metadata id="CorelCorpID_0Corel-Layer"/>
  <g>
   <path class="fil0" d="M15990.25 926.22l-531 961.06 -513.02 -961.06 -480.88 0c90.04,162.88 719.14,1345.46 719.14,1345.46l0 780.24 516.01 0c0.42,-105.29 0,-776.83 0,-776.83 0,0 653.54,-1185.18 745.71,-1348.87l-455.95 0zm-10629.14 3451.74l-660.7 0c-685.19,0 -1256.23,-675.64 -1256.23,-1514 0,-811.8 571.03,-1500.19 1256.23,-1500.19l660.59 0 0.11 3014.19zm-3760.62 0l-659.36 0 0 -3014.19 659.36 0c683.91,0 1256.86,688.34 1256.86,1500.13 0.11,838.42 -572.9,1514.08 -1256.86,1514.08l0 -0.01zm-1341.41 527.91l5783.04 0 0 -4069.64 -5783.04 0 0 4069.64zm10172.71 -3861.33c-146.57,-101.99 -393.41,-154.94 -713.96,-154.94 -312.81,0 -539.97,42.86 -714.71,155.79 -182.54,117.41 -268.62,314.57 -268.62,623.12l0 669.18c0,309.03 89.62,517.92 266.54,621.47 142.94,99.63 376.54,146.93 716.79,146.93 335.97,0 575.99,-48.14 713.11,-144.38 177.41,-110.53 270,-324.6 270,-623.98l0 -669.29c0,-293.54 -89.93,-502.92 -269.16,-623.92l0 0zm-212.15 1263.38c0,376.91 -131.57,463.69 -501.81,463.69 -369.44,0 -501.43,-86.78 -501.43,-463.69l0 -636.84c0,-367.74 131.99,-447.21 501.43,-447.21 370.29,0 501.81,79.47 501.81,447.21l0 636.84zm-2636.22 -1381.7l-1064.51 0 0 2126.72 1139.71 0c561.21,0 770.11,-229.49 770.11,-846.17l0 -467.37c0,-585.39 -236.97,-813.18 -845.31,-813.18l0 0zm369.65 1331.52c0,372.59 -198.86,466.48 -365.6,466.48l-588.38 0 0 -1485.99 588.38 0c166.74,0 365.6,94.09 365.6,440.58l0 578.93zm3580.17 -1331.52l-479.93 0 0 2126.51 1366.07 -0.01 0 -353.96 -886.14 0 0 -1772.54zm4671.19 1941.36l40.29 0 61.7 101.35 39.4 0 -65.97 -103.33c34.32,-4.27 60.47,-22.24 60.47,-63.24 0,-46.06 -27.01,-66.61 -82.72,-66.61l-88.28 0 0 233.14 35.11 -0.01 0 -101.29zm0 -102l47.94 0c41.15,0 51.93,12.01 51.93,34.33 0,25.51 -14.2,37.73 -57.43,37.73l-42.43 0 0 -72.06zm-161.08 85.72c0,117.63 93.4,202.28 204.42,202.28 109.25,0 203.14,-84.65 203.14,-202.28 0,-115.49 -93.88,-199.71 -203.14,-199.71 -111.02,0 -204.42,84.22 -204.42,199.71l0 0zm368.97 0c0,98.79 -72.32,169.25 -164.55,169.25 -93.45,0 -165.46,-70.45 -165.46,-169.25 0,-96.23 72.01,-168.23 165.46,-168.23 92.12,0 164.55,72.06 164.55,168.23l0 0zm-2816.88 -108.19l-432.8 0 0 -1512.2 471.81 0c159.86,0 259.24,127.08 259.24,300.44 0,267.02 -128.53,273.43 -496.74,287.14l0 246.2c328.29,-0.91 591.9,-21.18 591.9,319.44 0.05,170.62 -108.78,358.98 -393.41,358.98l0 0zm254.53 -815.79c377.08,-34.27 459.05,-219.36 459.05,-484.89 0,-234.47 -98.96,-353.33 -207.94,-420.42 -90.84,-57.21 -198.43,-95.8 -424.25,-95.8l-994.7 0 0 2126.72 1007.56 0c309.46,0 438.4,-61.48 497.96,-102.63 102.91,-68.1 235.75,-219.84 235.75,-462.63 0,-285.22 -99.44,-571.46 -573.43,-560.35z"/>
  </g>
  <path class="fil1" d="M7116.13 4906.88l-574.69 -1095.11 264.22 0 402.61 791.61 383.66 -791.61 230.52 0 -546.43 1095.11 -159.9 0zm907.12 0l0 -1095.11 231.16 0 0 1095.11 -231.16 0zm1531.25 -904.11l-651.1 0 0 235.58 619.96 0c97.59,0 163.09,18.39 197.44,54.82 34.36,36.8 51.37,104.7 51.37,204.46l0 150.68c0,99.04 -17.01,167.31 -51.37,203.74 -34.35,36.43 -99.85,54.83 -197.44,54.83l-614.19 0c-97.27,0 -163.09,-18.4 -197.13,-54.83 -34.35,-36.43 -51.37,-104.7 -51.37,-203.74l0 -30.06 204.2 -46.7 0 129.47 703.11 0 0 -250.44 -620.28 0c-96.65,0 -161.82,-18.39 -195.86,-54.82 -33.71,-36.43 -50.72,-104.35 -50.72,-203.74l0 -121.32c0,-99.4 17.01,-167.31 50.72,-204.11 34.04,-36.43 99.21,-54.82 195.86,-54.82l564.42 0c93.42,0 157.96,17.68 193.28,52.7 35.63,35.37 53.29,97.63 53.29,187.47l0 22.98 -204.2 53.06 0 -125.22zm628.13 904.11l0 -1095.11 231.16 0 0 1095.11 -231.16 0zm648.98 -836.55c0,-99.39 17.03,-167.31 50.74,-203.74 33.7,-36.43 98.88,-54.82 195.52,-54.82l731.69 0c96.96,0 162.46,18.39 196.16,54.82 34.04,36.43 51.06,104.35 51.06,203.74l0 577.63c0,100.09 -17.02,168.36 -51.06,204.44 -33.7,36.43 -99.2,54.48 -196.16,54.48l-731.69 0c-96.63,0 -161.82,-18.05 -195.52,-54.48 -33.71,-36.08 -50.74,-104.35 -50.74,-204.44l0 -577.63zm231.18 630.69l762.83 0 0 -694 -762.83 0 0 694zm1410.21 205.86l0 -1095.11 157.96 0 699.9 645.53c23.77,21.23 44.63,41.38 62.93,60.48 18.29,19.11 34.68,38.56 49.75,58.73 -3.52,-61.54 -6.1,-105.05 -7.38,-130.53 -1.28,-25.81 -1.92,-45.27 -1.92,-59.08l0 -575.13 208.05 0 0 1095.11 -157.96 0 -730.09 -676.67c-17.33,-17.33 -32.74,-32.54 -45.9,-46.69 -13.16,-13.8 -25.37,-27.94 -36.6,-42.44 2.89,33.95 5.46,65.79 7.06,95.85 1.61,30.07 2.25,56.25 2.25,78.18l0 591.78 -208.05 0z"/>
  <rect class="fil2" x="-0" y="-0.01" width="16705.9" height="5702.35"/>
 </g>
</svg>
