<?xml version="1.0" encoding="UTF-8"?>
<!DOCTYPE svg PUBLIC "-//W3C//DTD SVG 1.1//EN" "http://www.w3.org/Graphics/SVG/1.1/DTD/svg11.dtd">
<!-- Creator: CorelDRAW 2019 (64-Bit) -->
<svg xmlns="http://www.w3.org/2000/svg" xml:space="preserve" width="42.8846mm" height="41.1427mm" version="1.1" style="shape-rendering:geometricPrecision; text-rendering:geometricPrecision; image-rendering:optimizeQuality; fill-rule:evenodd; clip-rule:evenodd"
viewBox="0 0 43.99 42.2"
 xmlns:xlink="http://www.w3.org/1999/xlink"
 xmlns:xodm="http://www.corel.com/coreldraw/odm/2003">
 <defs>
  <style type="text/css">
   <![CDATA[
    .fil2 {fill:none}
    .fil1 {fill:#FEFEFE}
    .fil0 {fill:#FEFEFE;fill-rule:nonzero}
   ]]>
  </style>
 </defs>
 <g id="图层_x0020_1">
  <metadata id="CorelCorpID_0Corel-Layer"/>
  <path class="fil0" d="M3.61 4.96l6.73 0 0 2.32c0,0.52 -0.03,0.92 -0.1,1.2 -0.09,0.39 -0.25,0.71 -0.48,0.99 -0.3,0.36 -0.68,0.62 -1.15,0.8 -0.47,0.18 -1,0.26 -1.6,0.26 -0.51,0 -0.96,-0.06 -1.36,-0.18 -0.39,-0.12 -0.72,-0.27 -0.98,-0.46 -0.26,-0.19 -0.46,-0.39 -0.61,-0.61 -0.15,-0.22 -0.26,-0.49 -0.34,-0.8 -0.08,-0.32 -0.11,-0.68 -0.11,-1.08l0 -2.43zm0.79 0.89l0 1.44c0,0.44 0.04,0.79 0.12,1.04 0.08,0.25 0.2,0.45 0.35,0.6 0.21,0.21 0.5,0.37 0.85,0.49 0.36,0.12 0.79,0.18 1.3,0.18 0.71,0 1.25,-0.12 1.63,-0.35 0.38,-0.23 0.63,-0.51 0.76,-0.84 0.09,-0.24 0.14,-0.62 0.14,-1.15l0 -1.41 -5.15 0zm2.49 6.15c1.12,0 1.99,0.3 2.62,0.9 0.63,0.6 0.95,1.37 0.95,2.32 0,0.62 -0.15,1.18 -0.44,1.68 -0.3,0.5 -0.71,0.88 -1.24,1.14 -0.53,0.26 -1.13,0.39 -1.8,0.39 -0.68,0 -1.29,-0.14 -1.83,-0.41 -0.54,-0.28 -0.95,-0.67 -1.22,-1.17 -0.28,-0.51 -0.42,-1.05 -0.42,-1.64 0,-0.63 0.15,-1.2 0.46,-1.7 0.31,-0.5 0.72,-0.88 1.25,-1.13 0.53,-0.26 1.09,-0.39 1.68,-0.39zm-0.02 0.92c-0.81,0 -1.45,0.22 -1.91,0.65 -0.47,0.44 -0.7,0.98 -0.7,1.64 0,0.67 0.23,1.22 0.71,1.65 0.47,0.43 1.14,0.65 2,0.65 0.55,0 1.02,-0.09 1.43,-0.28 0.41,-0.18 0.72,-0.46 0.95,-0.81 0.22,-0.36 0.34,-0.76 0.34,-1.2 0,-0.63 -0.22,-1.17 -0.65,-1.63 -0.43,-0.45 -1.15,-0.68 -2.16,-0.68zm-3.26 7.15l6.73 0 0 0.89 -5.94 0 0 3.31 -0.79 0 0 -4.2zm0 5.75l6.73 0 0 2.53c0,0.51 -0.07,0.93 -0.2,1.24 -0.14,0.31 -0.35,0.55 -0.63,0.73 -0.28,0.18 -0.58,0.26 -0.89,0.26 -0.29,0 -0.56,-0.08 -0.81,-0.23 -0.25,-0.16 -0.46,-0.39 -0.62,-0.71 -0.12,0.41 -0.32,0.72 -0.61,0.94 -0.29,0.22 -0.63,0.33 -1.02,0.33 -0.32,0 -0.61,-0.07 -0.88,-0.2 -0.27,-0.13 -0.48,-0.3 -0.63,-0.49 -0.15,-0.2 -0.26,-0.44 -0.33,-0.74 -0.08,-0.3 -0.11,-0.66 -0.11,-1.09l0 -2.57zm3.9 0.89l0 1.46c0,0.39 0.03,0.68 0.08,0.85 0.07,0.23 0.18,0.4 0.34,0.51 0.16,0.11 0.35,0.17 0.59,0.17 0.22,0 0.42,-0.05 0.59,-0.16 0.17,-0.11 0.29,-0.26 0.35,-0.46 0.06,-0.2 0.09,-0.54 0.09,-1.02l0 -1.35 -2.04 0zm-3.11 0l0 1.68c0,0.29 0.01,0.49 0.03,0.61 0.04,0.2 0.1,0.38 0.18,0.51 0.09,0.14 0.21,0.25 0.38,0.34 0.16,0.09 0.35,0.13 0.57,0.13 0.25,0 0.47,-0.06 0.66,-0.19 0.19,-0.13 0.32,-0.31 0.39,-0.54 0.08,-0.23 0.11,-0.56 0.11,-0.98l0 -1.56 -2.32 0zm-0.79 7.84l2.85 0 3.88 -2.6 0 1.07 -2.04 1.33c-0.38,0.25 -0.76,0.48 -1.13,0.69 0.35,0.21 0.75,0.45 1.19,0.74l1.98 1.3 0 1.04 -3.88 -2.69 -2.85 0 0 -0.89z"/>
  <path class="fil1" d="M20.31 16.52l-7.73 0 0 21.02 8.71 0c2.61,0 4.8,-0.19 6.57,-0.58 1.78,-0.39 3.41,-1.01 4.92,-1.88 2.66,-1.53 4.67,-3.47 6.04,-5.83 1.37,-2.35 2.06,-5.06 2.06,-8.1 0,-5.08 -1.74,-9.08 -5.2,-12.01 -3.47,-2.93 -8.27,-4.38 -14.39,-4.38l-8.71 0 0 6.99 7.73 0 0 0 1.72 0c3.42,0 6.1,0.83 8.03,2.51 1.93,1.67 2.89,3.97 2.89,6.89 0,2.93 -0.96,5.21 -2.89,6.87 -1.93,1.66 -4.61,2.49 -8.03,2.49l-1.72 0 0 -13.98z"/>
  <path class="fil1" d="M20.31 16.52l-7.73 0 0 21.02 8.71 0c2.61,0 4.8,-0.19 6.57,-0.58 1.78,-0.39 3.41,-1.01 4.92,-1.88 2.66,-1.53 4.67,-3.47 6.04,-5.83 1.37,-2.35 2.06,-5.06 2.06,-8.1 0,-5.08 -1.74,-9.08 -5.2,-12.01 -3.47,-2.93 -8.27,-4.38 -14.39,-4.38l-8.71 0 0 6.99 7.73 0 0 0 1.72 0c3.42,0 6.1,0.83 8.03,2.51 1.93,1.67 2.89,3.97 2.89,6.89 0,2.93 -0.96,5.21 -2.89,6.87 -1.93,1.66 -4.61,2.49 -8.03,2.49l-1.72 0 0 -13.98z"/>
  <path class="fil0" d="M13.06 15.18l0.64 0c0.34,0 0.58,-0.06 0.72,-0.18 0.14,-0.12 0.21,-0.31 0.21,-0.58 0,-0.24 -0.06,-0.42 -0.18,-0.54 -0.12,-0.12 -0.29,-0.19 -0.52,-0.19l-0.88 0 0 1.48zm-0.49 0.44l0 -2.34 1.37 0c0.39,0 0.69,0.1 0.9,0.3 0.21,0.2 0.31,0.49 0.31,0.85 0,0.22 -0.04,0.41 -0.12,0.59 -0.08,0.17 -0.2,0.31 -0.35,0.41 -0.09,0.06 -0.21,0.11 -0.34,0.14 -0.14,0.03 -0.31,0.04 -0.53,0.04l-1.24 0zm3.34 0l0 -2.34 0.49 0 0 2.34 -0.49 0zm3.42 -1.92l-1.54 0 0 1.48 1.54 0 0 -0.52 -0.81 0 0 -0.4 1.29 0 0 0.81c0,0.21 -0.04,0.36 -0.11,0.44 -0.07,0.08 -0.21,0.12 -0.42,0.12l-1.46 0c-0.21,0 -0.35,-0.04 -0.42,-0.12 -0.07,-0.08 -0.11,-0.22 -0.11,-0.44l0 -1.23c0,-0.21 0.04,-0.36 0.11,-0.44 0.07,-0.08 0.21,-0.12 0.42,-0.12l1.46 0c0.2,0 0.34,0.04 0.42,0.11 0.07,0.08 0.11,0.22 0.11,0.42l0 0.05 -0.48 0.1 0 -0.26zm1.38 1.92l0 -2.34 0.49 0 0 2.34 -0.49 0zm2.42 -1.92l0 1.92 -0.49 0 0 -1.92 -0.97 0 0 -0.42 2.45 0 0 0.42 -0.98 0zm1.7 0.99l0.93 0 -0.46 -0.95 -0.47 0.95zm-0.95 0.93l1.2 -2.34 0.48 0 1.22 2.34 -0.55 0 -0.25 -0.51 -1.35 0 -0.25 0.51 -0.49 0zm3.43 0l0 -2.34 0.49 0 0 1.9 1.59 0 0 0.44 -2.08 0z"/>
  <rect class="fil2" y="-0" width="43.99" height="42.2"/>
 </g>
</svg>
