<?xml version="1.0" encoding="UTF-8"?>
<!DOCTYPE svg PUBLIC "-//W3C//DTD SVG 1.1//EN" "http://www.w3.org/Graphics/SVG/1.1/DTD/svg11.dtd">
<!-- Creator: CorelDRAW 2019 (64-Bit) -->
<svg xmlns="http://www.w3.org/2000/svg" xml:space="preserve" width="115.024mm" height="33.1263mm" version="1.1" style="shape-rendering:geometricPrecision; text-rendering:geometricPrecision; image-rendering:optimizeQuality; fill-rule:evenodd; clip-rule:evenodd"
viewBox="0 0 2849.35 820.59"
 xmlns:xlink="http://www.w3.org/1999/xlink"
 xmlns:xodm="http://www.corel.com/coreldraw/odm/2003">
 <defs>
  <style type="text/css">
   <![CDATA[
    .fil4 {fill:none}
    .fil2 {fill:#EEEEEF}
    .fil1 {fill:#332C2B}
    .fil0 {fill:#FEFEFE;fill-rule:nonzero}
    .fil3 {fill:url(#id1)}
   ]]>
  </style>
   <clipPath id="id0">
    <path d="M186.78 284.22l-186.78 -92.85 0 600.49 210.26 0c63,0 115.94,-4.66 158.63,-13.98 42.87,-9.32 82.39,-24.42 118.92,-45.48 64.13,-36.91 112.78,-83.7 145.77,-140.74 33.18,-56.85 49.77,-122.29 49.77,-195.73 0,-122.65 -41.94,-219.4 -125.63,-290.05 -83.7,-70.65 -199.64,-105.88 -347.46,-105.88l-210.26 0 0 168.62 186.78 0.27 0 0 41.57 0c82.58,0 147.27,20.13 193.87,60.58 46.6,40.45 69.9,95.81 69.9,166.46 0,70.65 -23.3,125.83 -69.9,165.9 -46.6,40.08 -111.29,60.03 -193.87,60.03l-41.57 0 0 -337.64z"/>
   </clipPath>
  <linearGradient id="id1" gradientUnits="userSpaceOnUse" x1="-412.87" y1="2252.53" x2="914.37" y2="-1517.45">
   <stop offset="0" style="stop-opacity:1; stop-color:#BA7802"/>
   <stop offset="0.0509804" style="stop-opacity:1; stop-color:#D19B2D"/>
   <stop offset="0.121569" style="stop-opacity:1; stop-color:#EBC15D"/>
   <stop offset="0.14902" style="stop-opacity:1; stop-color:#F5D06F"/>
   <stop offset="0.278431" style="stop-opacity:1; stop-color:#DB9F34"/>
   <stop offset="0.329412" style="stop-opacity:1; stop-color:#CE8817"/>
   <stop offset="0.380392" style="stop-opacity:1; stop-color:#DA9D31"/>
   <stop offset="0.458824" style="stop-opacity:1; stop-color:#E9B953"/>
   <stop offset="0.521569" style="stop-opacity:1; stop-color:#F2CA68"/>
   <stop offset="0.560784" style="stop-opacity:1; stop-color:#F5D06F"/>
   <stop offset="0.611765" style="stop-opacity:1; stop-color:#EBC15D"/>
   <stop offset="0.709804" style="stop-opacity:1; stop-color:#D19B2D"/>
   <stop offset="0.788235" style="stop-opacity:1; stop-color:#BA7802"/>
   <stop offset="0.929412" style="stop-opacity:1; stop-color:#F5D06F"/>
   <stop offset="1" style="stop-opacity:1; stop-color:#F5D06F"/>
  </linearGradient>
 </defs>
 <g id="图层_x0020_1">
  <metadata id="CorelCorpID_0Corel-Layer"/>
  <path class="fil0" d="M760.01 29l170.78 0c40.82,0 76.89,7.79 108.22,23.36 31.33,15.58 55.67,37.5 73.04,65.79 17.36,28.28 26.05,61.22 26.05,98.82 0,37.59 -8.68,70.53 -26.05,98.82 -17.36,28.28 -41.71,50.21 -73.04,65.79 -31.33,15.57 -67.4,23.36 -108.22,23.36l-170.78 0 0 -375.93zm166.49 304.51c37.59,0 67.58,-10.47 89.96,-31.42 22.38,-20.94 33.57,-49.32 33.57,-85.12 0,-35.8 -11.19,-64.18 -33.57,-85.12 -22.38,-20.94 -52.36,-31.42 -89.96,-31.42l-79.48 0 0 233.08 79.48 0zm489.57 77.87c-39.03,0 -74.2,-8.41 -105.53,-25.24 -31.33,-16.83 -55.85,-40.01 -73.57,-69.55 -17.72,-29.54 -26.58,-62.75 -26.58,-99.62 0,-36.88 8.86,-70.08 26.58,-99.62 17.72,-29.54 42.25,-52.72 73.57,-69.55 31.33,-16.83 66.5,-25.24 105.53,-25.24 39.03,0 74.11,8.41 105.26,25.24 31.15,16.83 55.67,40.01 73.57,69.55 17.9,29.54 26.85,62.74 26.85,99.62 0,36.88 -8.95,70.09 -26.85,99.62 -17.9,29.54 -42.43,52.72 -73.57,69.55 -31.15,16.83 -66.24,25.24 -105.26,25.24zm0 -74.11c22.2,0 42.25,-5.1 60.15,-15.3 17.9,-10.21 31.95,-24.44 42.16,-42.7 10.21,-18.26 15.31,-39.03 15.31,-62.3 0,-23.27 -5.1,-44.04 -15.31,-62.3 -10.2,-18.26 -24.26,-32.49 -42.16,-42.7 -17.9,-10.2 -37.95,-15.31 -60.15,-15.31 -22.2,0 -42.25,5.1 -60.15,15.31 -17.9,10.2 -31.96,24.44 -42.16,42.7 -10.2,18.26 -15.31,39.03 -15.31,62.3 0,23.27 5.1,44.04 15.31,62.3 10.2,18.26 24.26,32.49 42.16,42.7 17.9,10.2 37.95,15.3 60.15,15.3zm301.61 -308.26l87 0 0 305.04 188.5 0 0 70.89 -275.51 0 0 -375.93zm630.82 180.45c21.48,6.8 38.31,18.17 50.48,34.1 12.17,15.93 18.26,35.54 18.26,58.81 0,32.94 -12.8,58.27 -38.4,75.99 -25.6,17.72 -62.92,26.58 -111.97,26.58l-194.41 0 0 -375.93 183.67 0c45.83,0 81,8.77 105.53,26.31 24.52,17.54 36.79,41.35 36.79,71.43 0,18.26 -4.38,34.55 -13.16,48.87 -8.77,14.32 -21.04,25.6 -36.79,33.83zm-189.58 -114.93l0 88.61 86.47 0c21.48,0 37.77,-3.76 48.87,-11.28 11.1,-7.52 16.65,-18.62 16.65,-33.3 0,-14.68 -5.55,-25.69 -16.65,-33.03 -11.1,-7.34 -27.39,-11.01 -48.87,-11.01l-86.47 0zm101.5 244.9c22.91,0 40.19,-3.76 51.82,-11.28 11.64,-7.52 17.45,-19.16 17.45,-34.91 0,-31.15 -23.09,-46.72 -69.28,-46.72l-101.5 0 0 92.91 101.5 0zm588.93 -310.41l0 258.32c0,56.57 -15.75,99.98 -47.26,130.23 -31.5,30.25 -75.01,45.38 -130.5,45.38 -31.86,0 -61.04,-4.38 -87.54,-13.16 -26.49,-8.77 -49.05,-21.21 -67.67,-37.33l33.84 -64.45c34.01,27.57 73.75,41.35 119.22,41.35 31.51,0 54.87,-7.97 70.08,-23.9 15.22,-15.93 22.82,-40.55 22.82,-73.84l0 -23.09c-25.06,30.79 -60.51,46.19 -106.34,46.19 -47.62,0 -84.23,-13.52 -109.83,-40.55 -25.6,-27.03 -38.4,-65.97 -38.4,-116.81l0 -128.35 87 0 0 122.98c0,29.36 6.98,51.55 20.94,66.59 13.96,15.04 33.65,22.55 59.08,22.55 26.85,0 48.16,-7.87 63.91,-23.63 15.75,-15.75 23.63,-39.56 23.63,-71.43l0 -117.08 87 0z"/>
  <g id="_1886090476224">
   <path class="fil1" d="M186.78 284.22l-186.78 -92.85 0 600.49 33.9 28.74 210.26 0c63,0 115.94,-4.66 158.63,-13.98 42.87,-9.32 82.39,-24.42 118.92,-45.48 64.13,-36.91 112.78,-83.7 145.77,-140.74 33.18,-56.85 49.77,-122.29 49.77,-195.73 0,-122.35 -41.73,-218.92 -125.02,-289.53l-33.9 -28.74 -0.62 -0.52c-83.7,-70.65 -199.64,-105.88 -347.46,-105.88l-210.26 0 0 168.62 33.9 28.74 186.78 0.27 41.57 0c71.54,0 129.65,15.11 174.2,45.45 37.1,38.96 55.66,89.82 55.66,152.85 0,70.65 -23.3,125.83 -69.9,165.9 -46.6,40.08 -111.29,60.03 -193.87,60.03l-7.66 0 0 -308.9 -33.9 -28.74z"/>
  </g>
  <path class="fil2" d="M186.78 284.22l-186.78 -92.85 0 600.49 210.26 0c63,0 115.94,-4.66 158.63,-13.98 42.87,-9.32 82.39,-24.42 118.92,-45.48 64.13,-36.91 112.78,-83.7 145.77,-140.74 33.18,-56.85 49.77,-122.29 49.77,-195.73 0,-122.65 -41.94,-219.4 -125.63,-290.05 -83.7,-70.65 -199.64,-105.88 -347.46,-105.88l-210.26 0 0 168.62 186.78 0.27 0 0 41.57 0c82.58,0 147.27,20.13 193.87,60.58 46.6,40.45 69.9,95.81 69.9,166.46 0,70.65 -23.3,125.83 -69.9,165.9 -46.6,40.08 -111.29,60.03 -193.87,60.03l-41.57 0 0 -337.64z"/>
  <g style="clip-path:url(#id0)">
   <g id="_1886090477120">
    <path id="1" class="fil3" d="M1088.95 779.04c0,78.52 -18.34,141.59 -40.34,141.59l-1623.38 0 0 -952.54 1623.38 0c22.01,0 40.35,64.36 40.35,141.59l0 669.36z"/>
   </g>
  </g>
  <path class="fil4" d="M186.78 284.22l-186.78 -92.85 0 600.49 210.26 0c63,0 115.94,-4.66 158.63,-13.98 42.87,-9.32 82.39,-24.42 118.92,-45.48 64.13,-36.91 112.78,-83.7 145.77,-140.74 33.18,-56.85 49.77,-122.29 49.77,-195.73 0,-122.65 -41.94,-219.4 -125.63,-290.05 -83.7,-70.65 -199.64,-105.88 -347.46,-105.88l-210.26 0 0 168.62 186.78 0.27 0 0 41.57 0c82.58,0 147.27,20.13 193.87,60.58 46.6,40.45 69.9,95.81 69.9,166.46 0,70.65 -23.3,125.83 -69.9,165.9 -46.6,40.08 -111.29,60.03 -193.87,60.03l-41.57 0 0 -337.64z"/>
  <path class="fil0" d="M977.4 613.93l-77.92 184.67 -55.26 0 -77.58 -184.67 55.26 0 51.15 125.63 52.86 -125.63 51.49 0zm72.51 0l53.55 0 0 184.67 -53.55 0 0 -184.67zm26.77 -25.74c-9.84,0 -17.85,-2.86 -24.03,-8.58 -6.18,-5.72 -9.27,-12.82 -9.27,-21.28 0,-8.47 3.09,-15.56 9.27,-21.28 6.18,-5.72 14.19,-8.58 24.03,-8.58 9.84,0 17.85,2.75 24.03,8.24 6.18,5.49 9.27,12.36 9.27,20.6 0,8.92 -3.09,16.3 -9.27,22.14 -6.18,5.84 -14.19,8.75 -24.03,8.75zm189.21 213.16c-15.33,0 -30.32,-1.89 -44.97,-5.67 -14.65,-3.78 -26.31,-8.52 -35.01,-14.24l17.85 -38.45c8.24,5.26 18.19,9.55 29.86,12.87 11.67,3.32 23.11,4.98 34.32,4.98 22.66,0 33.98,-5.61 33.98,-16.82 0,-5.26 -3.09,-9.04 -9.27,-11.33 -6.18,-2.29 -15.68,-4.23 -28.49,-5.84 -15.1,-2.29 -27.57,-4.92 -37.41,-7.89 -9.84,-2.98 -18.37,-8.24 -25.57,-15.79 -7.21,-7.55 -10.81,-18.31 -10.81,-32.27 0,-11.67 3.37,-22.02 10.12,-31.06 6.75,-9.04 16.59,-16.08 29.52,-21.11 12.93,-5.03 28.2,-7.55 45.82,-7.55 13.04,0 26.03,1.43 38.96,4.29 12.93,2.86 23.63,6.81 32.09,11.84l-17.85 38.1c-16.25,-9.15 -33.98,-13.73 -53.2,-13.73 -11.44,0 -20.02,1.6 -25.74,4.81 -5.72,3.2 -8.58,7.32 -8.58,12.36 0,5.72 3.09,9.73 9.27,12.01 6.18,2.29 16.02,4.46 29.52,6.52 15.1,2.52 27.46,5.21 37.07,8.07 9.61,2.86 17.96,8.07 25.06,15.62 7.09,7.55 10.64,18.08 10.64,31.58 0,11.44 -3.43,21.63 -10.3,30.55 -6.87,8.93 -16.88,15.85 -30.04,20.77 -13.16,4.92 -28.77,7.38 -46.85,7.38zm170.67 -187.42l53.55 0 0 184.67 -53.55 0 0 -184.67zm26.77 -25.74c-9.84,0 -17.85,-2.86 -24.03,-8.58 -6.18,-5.72 -9.27,-12.82 -9.27,-21.28 0,-8.47 3.09,-15.56 9.27,-21.28 6.18,-5.72 14.19,-8.58 24.03,-8.58 9.84,0 17.85,2.75 24.03,8.24 6.18,5.49 9.27,12.36 9.27,20.6 0,8.92 -3.09,16.3 -9.27,22.14 -6.18,5.84 -14.19,8.75 -24.03,8.75zm214.95 213.16c-19.45,0 -36.9,-4.06 -52.35,-12.19 -15.45,-8.12 -27.52,-19.39 -36.21,-33.81 -8.7,-14.42 -13.04,-30.78 -13.04,-49.09 0,-18.31 4.35,-34.67 13.04,-49.09 8.69,-14.42 20.77,-25.69 36.21,-33.81 15.45,-8.13 32.89,-12.19 52.35,-12.19 19.45,0 36.84,4.06 52.17,12.19 15.33,8.12 27.35,19.39 36.04,33.81 8.69,14.42 13.04,30.78 13.04,49.09 0,18.31 -4.35,34.67 -13.04,49.09 -8.7,14.42 -20.71,25.69 -36.04,33.81 -15.33,8.13 -32.72,12.19 -52.17,12.19zm0 -43.94c13.73,0 25,-4.63 33.81,-13.9 8.81,-9.27 13.22,-21.68 13.22,-37.24 0,-15.56 -4.41,-27.97 -13.22,-37.24 -8.81,-9.27 -20.08,-13.9 -33.81,-13.9 -13.73,0 -25.06,4.63 -33.98,13.9 -8.92,9.27 -13.39,21.68 -13.39,37.24 0,15.56 4.46,27.97 13.39,37.24 8.93,9.27 20.25,13.9 33.98,13.9zm299.74 -146.22c22.88,0 41.36,6.86 55.44,20.59 14.07,13.73 21.11,34.1 21.11,61.1l0 105.72 -53.55 0 0 -97.48c0,-14.65 -3.2,-25.57 -9.61,-32.78 -6.41,-7.21 -15.67,-10.81 -27.8,-10.81 -13.5,0 -24.26,4.18 -32.27,12.53 -8.01,8.35 -12.01,20.77 -12.01,37.24l0 91.3 -53.55 0 0 -184.67 51.14 0 0 21.63c7.09,-7.78 15.9,-13.79 26.43,-18.02 10.53,-4.23 22.08,-6.35 34.67,-6.35z"/>
 </g>
</svg>
