<?xml version="1.0" encoding="UTF-8"?>
<!DOCTYPE svg PUBLIC "-//W3C//DTD SVG 1.1//EN" "http://www.w3.org/Graphics/SVG/1.1/DTD/svg11.dtd">
<!-- Creator: CorelDRAW 2019 (64-Bit) -->
<svg xmlns="http://www.w3.org/2000/svg" xml:space="preserve" width="133.189mm" height="41.1427mm" version="1.1" style="shape-rendering:geometricPrecision; text-rendering:geometricPrecision; image-rendering:optimizeQuality; fill-rule:evenodd; clip-rule:evenodd"
viewBox="0 0 3781.58 1168.15"
 xmlns:xlink="http://www.w3.org/1999/xlink"
 xmlns:xodm="http://www.corel.com/coreldraw/odm/2003">
 <defs>
  <style type="text/css">
   <![CDATA[
    .fil1 {fill:none}
    .fil0 {fill:#FEFEFE}
    .fil2 {fill:#FEFEFE;fill-rule:nonzero}
   ]]>
  </style>
 </defs>
 <g id="图层_x0020_1">
  <metadata id="CorelCorpID_0Corel-Layer"/>
  <path class="fil0" d="M281.64 457.39l-214.08 0 0 581.84 241 0c72.21,0 132.89,-5.34 181.82,-16.02 49.14,-10.68 94.43,-27.99 136.31,-52.13 73.5,-42.3 129.26,-95.93 167.08,-161.31 38.03,-65.16 57.04,-140.16 57.04,-224.34 0,-140.58 -48.07,-251.47 -144,-332.45 -95.93,-80.98 -228.82,-121.36 -398.25,-121.36l-241 0 0 193.58 214.08 0 0 0 47.64 0c94.65,0 168.79,23.07 222.2,69.44 53.41,46.36 80.12,109.82 80.12,190.79 0,80.98 -26.71,144.22 -80.12,190.15 -53.41,45.94 -127.55,68.8 -222.2,68.8l-47.64 0 0 -386.99z"/>
  <path class="fil0" d="M281.64 457.39l-214.08 0 0 581.84 241 0c72.21,0 132.89,-5.34 181.82,-16.02 49.14,-10.68 94.43,-27.99 136.31,-52.13 73.5,-42.3 129.26,-95.93 167.08,-161.31 38.03,-65.16 57.04,-140.16 57.04,-224.34 0,-140.58 -48.07,-251.47 -144,-332.45 -95.93,-80.98 -228.82,-121.36 -398.25,-121.36l-241 0 0 193.58 214.08 0 0 0 47.64 0c94.65,0 168.79,23.07 222.2,69.44 53.41,46.36 80.12,109.82 80.12,190.79 0,80.98 -26.71,144.22 -80.12,190.15 -53.41,45.94 -127.55,68.8 -222.2,68.8l-47.64 0 0 -386.99z"/>
  <rect class="fil1" x="-0" y="-0" width="3781.58" height="1168.15"/>
  <path class="fil2" d="M1340.23 448.04c19.61,19.61 29.41,43.33 29.41,71.16l0 8.54c0,27.83 -9.8,51.55 -29.41,71.17 -19.61,19.61 -43.33,29.41 -71.17,29.41l-354.86 0 0 -72.11 352.96 0c8.86,0 16.13,-2.84 21.82,-8.54 5.7,-5.69 8.54,-12.97 8.54,-21.82l0 -6.64c0,-8.23 -2.85,-15.18 -8.54,-20.87l-253.33 -253.34 -121.45 0 0 -72.11 150.86 0 275.16 275.16zm180.56 -208.27c44.59,-44.6 98.2,-66.89 160.82,-66.89 62.62,0 116.23,22.3 160.83,66.89 44.59,44.59 66.89,98.2 66.89,160.82 0,62.62 -22.3,116.23 -66.89,160.83 -44.6,44.6 -98.21,66.89 -160.83,66.89 -62.62,0 -116.23,-22.3 -160.82,-66.89 -44.59,-44.59 -66.89,-98.2 -66.89,-160.83 0,-62.62 22.3,-116.23 66.89,-160.82zm49.34 272.31c30.68,30.68 67.84,46.02 111.49,46.02 43.65,0 80.81,-15.34 111.49,-46.02 30.68,-30.68 46.02,-67.84 46.02,-111.49 0,-43.65 -15.34,-80.81 -46.02,-111.49 -30.68,-30.68 -67.85,-46.02 -111.49,-46.02 -43.65,0 -80.81,15.34 -111.49,46.02 -30.68,30.68 -46.02,67.84 -46.02,111.49 0,43.65 15.34,80.81 46.02,111.49zm550.6 44.12l352.97 0 0 72.11 -354.87 0c-27.83,0 -51.55,-9.8 -71.16,-29.41 -19.61,-19.61 -29.41,-43.33 -29.41,-71.17l0 -354.86 72.11 0 0 352.96c0,8.86 2.85,16.13 8.54,21.82 5.7,5.7 12.97,8.54 21.82,8.54zm800.62 -191.66l101.52 101.52 0 61.67c0,27.83 -9.8,51.55 -29.41,71.17 -19.61,19.61 -43.33,29.41 -71.16,29.41l-254.29 0c-27.83,0 -51.55,-9.8 -71.16,-29.41 -19.61,-19.61 -29.42,-43.33 -29.42,-71.17l0 -62.62c0,-27.83 9.8,-51.55 29.42,-71.16 19.61,-19.61 43.33,-29.41 71.16,-29.41l253.34 0zm29.41 161.3l0 -30.36 -58.83 -58.83 -222.02 0c-8.86,0 -16.13,3.01 -21.83,9.02 -5.69,6.01 -8.54,13.12 -8.54,21.35l0 58.82c0,8.86 2.85,16.13 8.54,21.82 5.69,5.7 12.97,8.54 21.83,8.54l250.49 0c8.86,0 16.13,-2.84 21.82,-8.54 5.69,-5.69 8.54,-12.97 8.54,-21.82zm-29.41 -250.49c0,-8.86 -2.84,-16.13 -8.54,-21.82 -5.69,-5.7 -12.65,-8.54 -20.87,-8.54l-324.5 0 0 -72.11 325.45 0c27.83,0 51.55,9.8 71.17,29.41 19.61,19.61 29.41,43.33 29.41,71.17l0 91.09 -72.11 0 0 -89.19zm310.07 161.3c-27.83,0 -51.55,-9.8 -71.16,-29.41 -19.61,-19.61 -29.42,-43.33 -29.42,-71.17l0 -163.2 72.11 0 0 161.3c0,8.86 2.85,16.13 8.54,21.82 5.69,5.7 12.97,8.54 21.82,8.54l189.77 0c8.86,0 16.13,-2.84 21.82,-8.54l60.73 -60.72c5.69,-5.7 8.54,-12.97 8.54,-21.82l0 -100.58 72.11 0 0 101.53c0,27.83 -9.81,51.55 -29.42,71.16l-61.67 61.67c-19.61,19.61 -43.33,29.41 -71.16,29.41l-192.61 0zm282.75 -48.39l72.11 0 0 56.93c0,27.2 -9.81,50.6 -29.42,70.21l-82.55 83.5c-19.61,19.61 -43.33,29.41 -71.16,29.41l-200.2 0c-20.24,0 -37.32,-6.96 -51.24,-20.87 -13.92,-13.92 -20.87,-31 -20.87,-51.23l271.37 0c8.23,0 15.18,-2.84 20.87,-8.54l82.55 -82.55c5.69,-5.69 8.54,-12.65 8.54,-20.87l0 -55.98z"/>
  <path class="fil2" d="M1131.82 781.01l39.01 0 -95.99 228.42c-2.4,5.47 -6.07,9.84 -11.04,13.09 -4.96,3.25 -10.35,4.88 -16.17,4.88 -5.81,0 -11.21,-1.63 -16.17,-4.88 -4.96,-3.25 -8.64,-7.62 -11.04,-13.09l-95.99 -228.42 39.01 0 81.61 193.52c0.34,1.37 1.2,2.06 2.57,2.06 1.37,0 2.23,-0.68 2.57,-2.06l81.61 -193.52zm326.88 39.01l-103.69 0 0 168.36 103.69 0 0 39.01 -246.39 0 0 -39.01 103.68 0 0 -168.36 -103.68 0 0 -39.01 246.39 0 0 39.01zm243.72 64.68c15.05,0 27.89,5.3 38.5,15.91 10.6,10.61 15.91,23.44 15.91,38.5l0 33.88c0,15.06 -5.31,27.89 -15.91,38.5 -10.61,10.61 -23.44,15.91 -38.5,15.91l-191.98 0 0 -39.01 190.95 0c4.79,0 8.73,-1.54 11.81,-4.61 3.08,-3.08 4.62,-7.02 4.62,-11.81l0 -31.83c0,-4.79 -1.54,-8.72 -4.62,-11.8 -3.08,-3.08 -7.01,-4.62 -11.81,-4.62l-136.54 0c-15.05,0 -27.89,-5.31 -38.5,-15.92 -10.61,-10.6 -15.91,-23.44 -15.91,-38.49l0 -33.88c0,-15.06 5.3,-27.89 15.91,-38.5 10.61,-10.6 23.45,-15.91 38.5,-15.91l68.78 0 0 39.01 -67.76 0c-4.79,0 -8.73,1.54 -11.81,4.62 -3.08,3.08 -4.62,7.01 -4.62,11.81l0 31.83c0,4.79 1.54,8.73 4.62,11.8 3.08,3.08 7.02,4.62 11.81,4.62l136.54 0zm351.51 -64.68l-103.69 0 0 168.36 103.69 0 0 39.01 -246.39 0 0 -39.01 103.68 0 0 -168.36 -103.68 0 0 -39.01 246.39 0 0 39.01zm70.99 -2.83c24.13,-24.13 53.13,-36.19 87,-36.19 33.88,0 62.88,12.06 87,36.19 24.13,24.13 36.19,53.13 36.19,87 0,33.88 -12.06,62.88 -36.19,87.01 -24.13,24.13 -53.13,36.19 -87,36.19 -33.88,0 -62.88,-12.06 -87,-36.19 -24.13,-24.13 -36.19,-53.13 -36.19,-87.01 0,-33.88 12.06,-62.88 36.19,-87zm26.69 147.32c16.59,16.59 36.7,24.89 60.31,24.89 23.61,0 43.72,-8.3 60.32,-24.89 16.6,-16.6 24.89,-36.71 24.89,-60.32 0,-23.61 -8.3,-43.72 -24.89,-60.31 -16.6,-16.6 -36.71,-24.89 -60.32,-24.89 -23.61,0 -43.72,8.3 -60.31,24.89 -16.6,16.59 -24.89,36.7 -24.89,60.31 0,23.61 8.3,43.72 24.89,60.32zm441.59 -183.51l39.01 0 0 198.65c0,6.5 -1.28,12.66 -3.85,18.48 -2.57,5.82 -5.99,10.86 -10.27,15.14 -4.28,4.27 -9.32,7.7 -15.14,10.26 -5.82,2.57 -11.98,3.85 -18.48,3.85 -6.85,0 -13.34,-1.2 -19.5,-3.59 -6.16,-2.4 -11.72,-5.82 -16.69,-10.27 -4.96,-4.45 -8.98,-9.75 -12.06,-15.91l-86.75 -168.88c-3.08,-5.82 -7.87,-8.73 -14.38,-8.73l-49.27 0c0,-10.95 3.76,-20.19 11.29,-27.72 7.53,-7.53 16.77,-11.29 27.72,-11.29l10.78 0c10.27,0 19.76,2.66 28.49,7.96 8.73,5.3 15.31,12.58 19.76,21.82l86.75 168.88c2.73,5.82 7.53,8.72 14.37,8.72 2.4,0 4.36,-0.77 5.9,-2.31 1.54,-1.54 2.31,-3.51 2.31,-5.91l0 -199.16z"/>
 </g>
</svg>
