<?xml version="1.0" encoding="UTF-8"?>
<!DOCTYPE svg PUBLIC "-//W3C//DTD SVG 1.1//EN" "http://www.w3.org/Graphics/SVG/1.1/DTD/svg11.dtd">
<!-- Creator: CorelDRAW 2019 (64-Bit) -->
<svg xmlns="http://www.w3.org/2000/svg" xml:space="preserve" width="112.967mm" height="41.1427mm" version="1.1" style="shape-rendering:geometricPrecision; text-rendering:geometricPrecision; image-rendering:optimizeQuality; fill-rule:evenodd; clip-rule:evenodd"
viewBox="0 0 2723.03 991.73"
 xmlns:xlink="http://www.w3.org/1999/xlink"
 xmlns:xodm="http://www.corel.com/coreldraw/odm/2003">
 <defs>
  <style type="text/css">
   <![CDATA[
    .str0 {stroke:#FEFEFE;stroke-width:1.84;stroke-miterlimit:22.9256}
    .fil2 {fill:none}
    .fil1 {fill:#FEFEFE}
    .fil0 {fill:#FEFEFE;fill-rule:nonzero}
   ]]>
  </style>
   <clipPath id="id0">
    <path d="M224.26 376.88l-172.3 -85.66 0 553.96 193.97 0c58.12,0 106.96,-4.3 146.34,-12.9 39.55,-8.6 76,-22.53 109.71,-41.96 59.16,-34.05 104.04,-77.21 134.48,-129.83 30.61,-52.45 45.91,-112.81 45.91,-180.56 0,-113.15 -38.69,-202.4 -115.9,-267.57 -77.21,-65.17 -184.17,-97.67 -320.53,-97.67l-193.97 0 0 155.55 172.3 0.25 0 0 38.35 0c76.18,0 135.85,18.57 178.84,55.89 42.99,37.31 64.48,88.39 64.48,153.56 0,65.18 -21.49,116.08 -64.48,153.04 -42.99,36.97 -102.66,55.37 -178.84,55.37l-38.35 0 0 -311.47z"/>
   </clipPath>
   <clipPath id="id1">
    <path d="M224.26 376.88l-172.3 -85.66 0 553.96 193.97 0c58.12,0 106.96,-4.3 146.34,-12.9 39.55,-8.6 76,-22.53 109.71,-41.96 59.16,-34.05 104.04,-77.21 134.48,-129.83 30.61,-52.45 45.91,-112.81 45.91,-180.56 0,-113.15 -38.69,-202.4 -115.9,-267.57 -77.21,-65.17 -184.17,-97.67 -320.53,-97.67l-193.97 0 0 155.55 172.3 0.25 0 0 38.35 0c76.18,0 135.85,18.57 178.84,55.89 42.99,37.31 64.48,88.39 64.48,153.56 0,65.18 -21.49,116.08 -64.48,153.04 -42.99,36.97 -102.66,55.37 -178.84,55.37l-38.35 0 0 -311.47z"/>
   </clipPath>
 </defs>
 <g id="图层_x0020_1">
  <metadata id="CorelCorpID_0Corel-Layer"/>
  <path class="fil0" d="M753.07 141.44l157.55 0c37.65,0 70.93,7.18 99.83,21.55 28.9,14.37 51.36,34.6 67.38,60.69 16.02,26.09 24.03,56.48 24.03,91.16 0,34.68 -8.01,65.07 -24.03,91.16 -16.02,26.09 -38.48,46.32 -67.38,60.69 -28.9,14.37 -62.18,21.55 -99.83,21.55l-157.55 0 0 -346.8zm153.58 280.91c34.68,0 62.34,-9.66 82.99,-28.98 20.64,-19.32 30.96,-45.5 30.96,-78.53 0,-33.03 -10.32,-59.2 -30.96,-78.52 -20.64,-19.32 -48.3,-28.98 -82.99,-28.98l-73.32 0 0 215.02 73.32 0zm451.63 71.84c-36,0 -68.45,-7.76 -97.35,-23.29 -28.9,-15.52 -51.52,-36.91 -67.87,-64.16 -16.35,-27.25 -24.52,-57.88 -24.52,-91.9 0,-34.02 8.17,-64.65 24.52,-91.9 16.35,-27.25 38.97,-48.63 67.87,-64.16 28.9,-15.52 61.35,-23.29 97.35,-23.29 36,0 68.37,7.76 97.11,23.29 28.74,15.52 51.36,36.91 67.87,64.16 16.51,27.25 24.77,57.88 24.77,91.9 0,34.02 -8.26,64.66 -24.77,91.9 -16.51,27.25 -39.14,48.63 -67.87,64.16 -28.74,15.52 -61.1,23.29 -97.11,23.29zm0 -68.37c20.48,0 38.97,-4.71 55.49,-14.12 16.51,-9.42 29.48,-22.55 38.89,-39.39 9.42,-16.84 14.12,-36 14.12,-57.47 0,-21.47 -4.71,-40.62 -14.12,-57.47 -9.41,-16.84 -22.38,-29.97 -38.89,-39.39 -16.52,-9.41 -35.01,-14.12 -55.49,-14.12 -20.48,0 -38.97,4.71 -55.49,14.12 -16.51,9.41 -29.48,22.54 -38.89,39.39 -9.41,16.84 -14.12,36 -14.12,57.47 0,21.47 4.71,40.63 14.12,57.47 9.41,16.84 22.38,29.97 38.89,39.39 16.51,9.41 35.01,14.12 55.49,14.12zm278.23 -284.37l80.26 0 0 281.4 173.89 0 0 65.4 -254.16 0 0 -346.8zm581.93 166.46c19.82,6.27 35.34,16.76 46.57,31.46 11.23,14.7 16.84,32.78 16.84,54.25 0,30.39 -11.81,53.75 -35.42,70.1 -23.62,16.35 -58.05,24.52 -103.3,24.52l-179.35 0 0 -346.8 169.44 0c42.27,0 74.72,8.09 97.35,24.28 22.62,16.18 33.93,38.15 33.93,65.89 0,16.84 -4.04,31.87 -12.14,45.09 -8.09,13.21 -19.41,23.62 -33.94,31.21zm-174.89 -106.02l0 81.75 79.77 0c19.82,0 34.84,-3.47 45.08,-10.4 10.24,-6.94 15.36,-17.17 15.36,-30.72 0,-13.54 -5.12,-23.7 -15.36,-30.47 -10.24,-6.77 -25.27,-10.16 -45.08,-10.16l-79.77 0zm93.63 225.92c21.14,0 37.08,-3.47 47.81,-10.4 10.73,-6.93 16.1,-17.67 16.1,-32.2 0,-28.74 -21.3,-43.1 -63.91,-43.1l-93.63 0 0 85.71 93.63 0zm543.29 -286.36l0 238.3c0,52.18 -14.53,92.23 -43.6,120.14 -29.07,27.91 -69.2,41.86 -120.39,41.86 -29.39,0 -56.31,-4.04 -80.75,-12.14 -24.44,-8.09 -45.25,-19.57 -62.42,-34.43l31.21 -59.45c31.37,25.43 68.04,38.15 109.98,38.15 29.07,0 50.62,-7.35 64.65,-22.05 14.04,-14.7 21.06,-37.4 21.06,-68.12l0 -21.3c-23.12,28.41 -55.82,42.61 -98.09,42.61 -43.93,0 -77.7,-12.47 -101.31,-37.41 -23.62,-24.94 -35.42,-60.85 -35.42,-107.75l0 -118.41 80.26 0 0 113.45c0,27.08 6.44,47.56 19.32,61.43 12.88,13.87 31.05,20.81 54.5,20.81 24.77,0 44.43,-7.27 58.96,-21.8 14.54,-14.53 21.8,-36.5 21.8,-65.89l0 -108 80.26 0z"/>
  <path class="fil1" d="M224.26 376.88l-172.3 -85.66 0 553.96 193.97 0c58.12,0 106.96,-4.3 146.34,-12.9 39.55,-8.6 76,-22.53 109.71,-41.96 59.16,-34.05 104.04,-77.21 134.48,-129.83 30.61,-52.45 45.91,-112.81 45.91,-180.56 0,-113.15 -38.69,-202.4 -115.9,-267.57 -77.21,-65.17 -184.17,-97.67 -320.53,-97.67l-193.97 0 0 155.55 172.3 0.25 0 0 38.35 0c76.18,0 135.85,18.57 178.84,55.89 42.99,37.31 64.48,88.39 64.48,153.56 0,65.18 -21.49,116.08 -64.48,153.04 -42.99,36.97 -102.66,55.37 -178.84,55.37l-38.35 0 0 -311.47z"/>
  <g style="clip-path:url(#id0)">
  </g>
  <path id="1" class="fil2" d="M224.26 376.88l-172.3 -85.66 0 553.96 193.97 0c58.12,0 106.96,-4.3 146.34,-12.9 39.55,-8.6 76,-22.53 109.71,-41.96 59.16,-34.05 104.04,-77.21 134.48,-129.83 30.61,-52.45 45.91,-112.81 45.91,-180.56 0,-113.15 -38.69,-202.4 -115.9,-267.57 -77.21,-65.17 -184.17,-97.67 -320.53,-97.67l-193.97 0 0 155.55 172.3 0.25 0 0 38.35 0c76.18,0 135.85,18.57 178.84,55.89 42.99,37.31 64.48,88.39 64.48,153.56 0,65.18 -21.49,116.08 -64.48,153.04 -42.99,36.97 -102.66,55.37 -178.84,55.37l-38.35 0 0 -311.47z"/>
  <g style="clip-path:url(#id1)">
   <path id="2" class="fil2 str0" d="M51.96 114.69l630.4 730.49m0 -730.49l-630.4 730.49"/>
  </g>
  <path class="fil0" d="M953.61 681.05l-71.88 170.36 -50.98 0 -71.56 -170.36 50.98 0 47.18 115.89 48.76 -115.89 47.5 0zm66.89 0l49.4 0 0 170.36 -49.4 0 0 -170.36zm24.7 -23.75c-9.08,0 -16.47,-2.64 -22.17,-7.92 -5.7,-5.28 -8.55,-11.82 -8.55,-19.63 0,-7.81 2.85,-14.36 8.55,-19.64 5.7,-5.28 13.09,-7.92 22.17,-7.92 9.08,0 16.46,2.53 22.16,7.6 5.7,5.07 8.55,11.4 8.55,19 0,8.23 -2.85,15.04 -8.55,20.42 -5.7,5.38 -13.09,8.08 -22.16,8.08zm174.54 196.64c-14.14,0 -27.97,-1.74 -41.48,-5.23 -13.51,-3.48 -24.28,-7.86 -32.3,-13.14l16.47 -35.47c7.6,4.86 16.78,8.82 27.55,11.88 10.77,3.06 21.32,4.59 31.66,4.59 20.9,0 31.35,-5.17 31.35,-15.52 0,-4.85 -2.85,-8.34 -8.55,-10.45 -5.7,-2.11 -14.46,-3.9 -26.28,-5.38 -13.93,-2.11 -25.44,-4.54 -34.51,-7.28 -9.08,-2.74 -16.94,-7.6 -23.59,-14.56 -6.65,-6.97 -9.97,-16.89 -9.97,-29.76 0,-10.77 3.11,-20.32 9.34,-28.66 6.23,-8.34 15.31,-14.83 27.23,-19.47 11.93,-4.64 26.02,-6.96 42.27,-6.96 12.04,0 24.01,1.32 35.94,3.96 11.93,2.64 21.8,6.28 29.61,10.92l-16.47 35.15c-14.99,-8.44 -31.35,-12.67 -49.08,-12.67 -10.55,0 -18.47,1.48 -23.75,4.43 -5.28,2.96 -7.92,6.75 -7.92,11.4 0,5.28 2.85,8.97 8.55,11.08 5.7,2.11 14.78,4.12 27.23,6.02 13.93,2.32 25.33,4.8 34.2,7.44 8.87,2.64 16.57,7.44 23.11,14.41 6.55,6.97 9.82,16.68 9.82,29.13 0,10.56 -3.16,19.95 -9.5,28.18 -6.33,8.23 -15.57,14.62 -27.71,19.16 -12.14,4.54 -26.54,6.81 -43.22,6.81zm157.45 -172.89l49.4 0 0 170.36 -49.4 0 0 -170.36zm24.7 -23.75c-9.08,0 -16.47,-2.64 -22.17,-7.92 -5.7,-5.28 -8.55,-11.82 -8.55,-19.63 0,-7.81 2.85,-14.36 8.55,-19.64 5.7,-5.28 13.09,-7.92 22.17,-7.92 9.08,0 16.46,2.53 22.16,7.6 5.7,5.07 8.55,11.4 8.55,19 0,8.23 -2.85,15.04 -8.55,20.42 -5.7,5.38 -13.09,8.08 -22.16,8.08zm198.29 196.64c-17.94,0 -34.04,-3.75 -48.29,-11.24 -14.25,-7.49 -25.38,-17.89 -33.41,-31.19 -8.02,-13.3 -12.03,-28.39 -12.03,-45.28 0,-16.89 4.01,-31.98 12.03,-45.28 8.02,-13.3 19.16,-23.7 33.41,-31.19 14.25,-7.5 30.34,-11.24 48.29,-11.24 17.94,0 33.99,3.74 48.13,11.24 14.14,7.49 25.23,17.89 33.25,31.19 8.02,13.3 12.03,28.39 12.03,45.28 0,16.89 -4.01,31.98 -12.03,45.28 -8.02,13.3 -19.11,23.69 -33.25,31.19 -14.14,7.49 -30.19,11.24 -48.13,11.24zm0 -40.53c12.67,0 23.06,-4.27 31.19,-12.83 8.13,-8.55 12.19,-20 12.19,-34.35 0,-14.36 -4.07,-25.81 -12.19,-34.36 -8.13,-8.55 -18.52,-12.82 -31.19,-12.82 -12.66,0 -23.11,4.27 -31.35,12.82 -8.23,8.55 -12.35,20 -12.35,34.36 0,14.35 4.12,25.81 12.35,34.35 8.23,8.55 18.68,12.83 31.35,12.83zm276.51 -134.89c21.11,0 38.16,6.33 51.14,18.99 12.98,12.67 19.47,31.46 19.47,56.37l0 97.53 -49.4 0 0 -89.93c0,-13.51 -2.96,-23.59 -8.87,-30.24 -5.91,-6.65 -14.46,-9.98 -25.65,-9.98 -12.45,0 -22.38,3.85 -29.76,11.56 -7.39,7.7 -11.08,19.16 -11.08,34.36l0 84.23 -49.4 0 0 -170.36 47.18 0 0 19.95c6.54,-7.18 14.67,-12.72 24.38,-16.63 9.71,-3.9 20.37,-5.86 31.98,-5.86z"/>
  <rect class="fil2" x="-0" y="-0" width="2723.03" height="991.73"/>
 </g>
</svg>
