<?xml version="1.0" encoding="UTF-8"?>
<!DOCTYPE svg PUBLIC "-//W3C//DTD SVG 1.1//EN" "http://www.w3.org/Graphics/SVG/1.1/DTD/svg11.dtd">
<!-- Creator: CorelDRAW 2019 (64-Bit) -->
<svg xmlns="http://www.w3.org/2000/svg" xml:space="preserve" width="85.5159mm" height="41.1427mm" version="1.1" style="shape-rendering:geometricPrecision; text-rendering:geometricPrecision; image-rendering:optimizeQuality; fill-rule:evenodd; clip-rule:evenodd"
viewBox="0 0 171.4 82.46"
 xmlns:xlink="http://www.w3.org/1999/xlink"
 xmlns:xodm="http://www.corel.com/coreldraw/odm/2003">
 <defs>
  <style type="text/css">
   <![CDATA[
    .fil1 {fill:none}
    .fil0 {fill:#FEFEFE}
    .fil2 {fill:#FEFEFE;fill-rule:nonzero}
   ]]>
  </style>
 </defs>
 <g id="图层_x0020_1">
  <metadata id="CorelCorpID_0Corel-Layer"/>
  <path class="fil0" d="M19.88 32.29l-15.11 0 0 41.07 17.01 0c5.1,0 9.38,-0.38 12.83,-1.13 3.47,-0.75 6.67,-1.98 9.62,-3.68 5.19,-2.99 9.12,-6.77 11.79,-11.39 2.68,-4.6 4.03,-9.89 4.03,-15.84 0,-9.92 -3.39,-17.75 -10.17,-23.47 -6.77,-5.72 -16.15,-8.57 -28.11,-8.57l-17.01 0 0 13.66 15.11 0 0 0 3.36 0c6.68,0 11.92,1.63 15.69,4.9 3.77,3.27 5.66,7.75 5.66,13.47 0,5.72 -1.89,10.18 -5.66,13.42 -3.77,3.24 -9,4.86 -15.69,4.86l-3.36 0 0 -27.32z"/>
  <path class="fil0" d="M19.88 32.29l-15.11 0 0 41.07 17.01 0c5.1,0 9.38,-0.38 12.83,-1.13 3.47,-0.75 6.67,-1.98 9.62,-3.68 5.19,-2.99 9.12,-6.77 11.79,-11.39 2.68,-4.6 4.03,-9.89 4.03,-15.84 0,-9.92 -3.39,-17.75 -10.17,-23.47 -6.77,-5.72 -16.15,-8.57 -28.11,-8.57l-17.01 0 0 13.66 15.11 0 0 0 3.36 0c6.68,0 11.92,1.63 15.69,4.9 3.77,3.27 5.66,7.75 5.66,13.47 0,5.72 -1.89,10.18 -5.66,13.42 -3.77,3.24 -9,4.86 -15.69,4.86l-3.36 0 0 -27.32z"/>
  <rect class="fil1" y="-0" width="171.4" height="82.46"/>
  <path class="fil2" d="M80.92 37.42c0.75,0.75 1.13,1.67 1.13,2.74l0 0.33c0,1.07 -0.38,1.98 -1.13,2.74 -0.75,0.75 -1.67,1.13 -2.74,1.13l-13.65 0 0 -2.77 13.57 0c0.34,0 0.62,-0.11 0.84,-0.33 0.22,-0.22 0.33,-0.5 0.33,-0.84l0 -0.26c0,-0.32 -0.11,-0.58 -0.33,-0.8l-9.74 -9.74 -4.67 0 0 -2.77 5.8 0 10.58 10.58zm6.94 -8.01c1.71,-1.71 3.78,-2.57 6.18,-2.57 2.41,0 4.47,0.86 6.18,2.57 1.71,1.71 2.57,3.78 2.57,6.18 0,2.41 -0.86,4.47 -2.57,6.18 -1.71,1.71 -3.78,2.57 -6.18,2.57 -2.41,0 -4.47,-0.86 -6.18,-2.57 -1.71,-1.71 -2.57,-3.78 -2.57,-6.18 0,-2.41 0.86,-4.47 2.57,-6.18zm1.9 10.47c1.18,1.18 2.61,1.77 4.29,1.77 1.68,0 3.11,-0.59 4.29,-1.77 1.18,-1.18 1.77,-2.61 1.77,-4.29 0,-1.68 -0.59,-3.11 -1.77,-4.29 -1.18,-1.18 -2.61,-1.77 -4.29,-1.77 -1.68,0 -3.11,0.59 -4.29,1.77 -1.18,1.18 -1.77,2.61 -1.77,4.29 0,1.68 0.59,3.11 1.77,4.29zm21.17 1.7l13.57 0 0 2.77 -13.65 0c-1.07,0 -1.98,-0.38 -2.74,-1.13 -0.75,-0.75 -1.13,-1.67 -1.13,-2.74l0 -13.65 2.77 0 0 13.57c0,0.34 0.11,0.62 0.33,0.84 0.22,0.22 0.5,0.33 0.84,0.33zm30.79 -7.37l3.9 3.9 0 2.37c0,1.07 -0.38,1.98 -1.13,2.74 -0.75,0.75 -1.67,1.13 -2.74,1.13l-9.78 0c-1.07,0 -1.98,-0.38 -2.74,-1.13 -0.75,-0.75 -1.13,-1.67 -1.13,-2.74l0 -2.41c0,-1.07 0.38,-1.98 1.13,-2.74 0.75,-0.75 1.67,-1.13 2.74,-1.13l9.74 0zm1.13 6.2l0 -1.17 -2.26 -2.26 -8.54 0c-0.34,0 -0.62,0.12 -0.84,0.35 -0.22,0.23 -0.33,0.5 -0.33,0.82l0 2.26c0,0.34 0.11,0.62 0.33,0.84 0.22,0.22 0.5,0.33 0.84,0.33l9.63 0c0.34,0 0.62,-0.11 0.84,-0.33 0.22,-0.22 0.33,-0.5 0.33,-0.84zm-1.13 -9.63c0,-0.34 -0.11,-0.62 -0.33,-0.84 -0.22,-0.22 -0.49,-0.33 -0.8,-0.33l-12.48 0 0 -2.77 12.51 0c1.07,0 1.98,0.38 2.74,1.13 0.75,0.75 1.13,1.67 1.13,2.74l0 3.5 -2.77 0 0 -3.43zm11.92 6.2c-1.07,0 -1.98,-0.38 -2.74,-1.13 -0.75,-0.75 -1.13,-1.67 -1.13,-2.74l0 -6.28 2.77 0 0 6.2c0,0.34 0.11,0.62 0.33,0.84 0.22,0.22 0.5,0.33 0.84,0.33l7.3 0c0.34,0 0.62,-0.11 0.84,-0.33l2.34 -2.33c0.22,-0.22 0.33,-0.5 0.33,-0.84l0 -3.87 2.77 0 0 3.9c0,1.07 -0.38,1.98 -1.13,2.74l-2.37 2.37c-0.75,0.75 -1.67,1.13 -2.74,1.13l-7.41 0zm10.87 -1.86l2.77 0 0 2.19c0,1.05 -0.38,1.95 -1.13,2.7l-3.17 3.21c-0.75,0.75 -1.67,1.13 -2.74,1.13l-7.7 0c-0.78,0 -1.44,-0.27 -1.97,-0.8 -0.54,-0.54 -0.8,-1.19 -0.8,-1.97l10.44 0c0.32,0 0.58,-0.11 0.8,-0.33l3.17 -3.17c0.22,-0.22 0.33,-0.49 0.33,-0.8l0 -2.15z"/>
  <path class="fil2" d="M73.25 48.49l1.5 0 -3.7 8.81c-0.09,0.21 -0.23,0.38 -0.43,0.5 -0.19,0.13 -0.4,0.19 -0.62,0.19 -0.22,0 -0.43,-0.06 -0.62,-0.19 -0.19,-0.13 -0.33,-0.29 -0.43,-0.5l-3.7 -8.81 1.5 0 3.15 7.46c0.01,0.05 0.05,0.08 0.1,0.08 0.05,0 0.09,-0.03 0.1,-0.08l3.15 -7.46zm12.6 1.5l-4 0 0 6.49 4 0 0 1.5 -9.5 0 0 -1.5 4 0 0 -6.49 -4 0 0 -1.5 9.5 0 0 1.5zm9.4 2.49c0.58,0 1.08,0.2 1.48,0.61 0.41,0.41 0.61,0.9 0.61,1.48l0 1.31c0,0.58 -0.2,1.08 -0.61,1.48 -0.41,0.41 -0.9,0.61 -1.48,0.61l-7.4 0 0 -1.5 7.36 0c0.18,0 0.34,-0.06 0.46,-0.18 0.12,-0.12 0.18,-0.27 0.18,-0.46l0 -1.23c0,-0.18 -0.06,-0.34 -0.18,-0.46 -0.12,-0.12 -0.27,-0.18 -0.46,-0.18l-5.26 0c-0.58,0 -1.08,-0.2 -1.48,-0.61 -0.41,-0.41 -0.61,-0.9 -0.61,-1.48l0 -1.31c0,-0.58 0.2,-1.08 0.61,-1.48 0.41,-0.41 0.9,-0.61 1.48,-0.61l2.65 0 0 1.5 -2.61 0c-0.18,0 -0.34,0.06 -0.46,0.18 -0.12,0.12 -0.18,0.27 -0.18,0.46l0 1.23c0,0.18 0.06,0.34 0.18,0.46 0.12,0.12 0.27,0.18 0.46,0.18l5.26 0zm13.55 -2.49l-4 0 0 6.49 4 0 0 1.5 -9.5 0 0 -1.5 4 0 0 -6.49 -4 0 0 -1.5 9.5 0 0 1.5zm2.74 -0.11c0.93,-0.93 2.05,-1.4 3.35,-1.4 1.31,0 2.42,0.47 3.35,1.4 0.93,0.93 1.4,2.05 1.4,3.35 0,1.31 -0.46,2.42 -1.4,3.35 -0.93,0.93 -2.05,1.4 -3.35,1.4 -1.31,0 -2.42,-0.47 -3.35,-1.4 -0.93,-0.93 -1.4,-2.05 -1.4,-3.35 0,-1.31 0.47,-2.42 1.4,-3.35zm1.03 5.68c0.64,0.64 1.42,0.96 2.33,0.96 0.91,0 1.69,-0.32 2.33,-0.96 0.64,-0.64 0.96,-1.42 0.96,-2.33 0,-0.91 -0.32,-1.69 -0.96,-2.33 -0.64,-0.64 -1.42,-0.96 -2.33,-0.96 -0.91,0 -1.69,0.32 -2.33,0.96 -0.64,0.64 -0.96,1.42 -0.96,2.33 0,0.91 0.32,1.69 0.96,2.33zm17.03 -7.08l1.5 0 0 7.66c0,0.25 -0.05,0.49 -0.15,0.71 -0.1,0.22 -0.23,0.42 -0.4,0.58 -0.16,0.16 -0.36,0.3 -0.58,0.4 -0.22,0.1 -0.46,0.15 -0.71,0.15 -0.26,0 -0.51,-0.05 -0.75,-0.14 -0.24,-0.09 -0.45,-0.22 -0.64,-0.4 -0.19,-0.17 -0.35,-0.38 -0.46,-0.61l-3.34 -6.51c-0.12,-0.22 -0.3,-0.34 -0.55,-0.34l-1.9 0c0,-0.42 0.15,-0.78 0.44,-1.07 0.29,-0.29 0.65,-0.44 1.07,-0.44l0.42 0c0.4,0 0.76,0.1 1.1,0.31 0.34,0.2 0.59,0.48 0.76,0.84l3.34 6.51c0.11,0.22 0.29,0.34 0.55,0.34 0.09,0 0.17,-0.03 0.23,-0.09 0.06,-0.06 0.09,-0.14 0.09,-0.23l0 -7.68z"/>
 </g>
</svg>
