<?xml version="1.0" encoding="UTF-8"?>
<!DOCTYPE svg PUBLIC "-//W3C//DTD SVG 1.1//EN" "http://www.w3.org/Graphics/SVG/1.1/DTD/svg11.dtd">
<!-- Creator: CorelDRAW 2019 (64-Bit) -->
<svg xmlns="http://www.w3.org/2000/svg" xml:space="preserve" width="103.178mm" height="41.1427mm" version="1.1" style="shape-rendering:geometricPrecision; text-rendering:geometricPrecision; image-rendering:optimizeQuality; fill-rule:evenodd; clip-rule:evenodd"
viewBox="0 0 5472.24 2182.08"
 xmlns:xlink="http://www.w3.org/1999/xlink"
 xmlns:xodm="http://www.corel.com/coreldraw/odm/2003">
 <defs>
  <style type="text/css">
   <![CDATA[
    .fil2 {fill:none}
    .fil0 {fill:#FEFEFE}
    .fil1 {fill:#FEFEFE;fill-rule:nonzero}
   ]]>
  </style>
 </defs>
 <g id="图层_x0020_1">
  <metadata id="CorelCorpID_0Corel-Layer"/>
  <path class="fil0" d="M1014.02 1694.51c-0.95,119.06 -8.09,129.29 -59.98,200.17 11.47,-3.28 78.56,-45.38 101.28,-58.37 44.67,-25.54 55.75,-39.21 77.42,-88.82 26.79,-61.34 26.51,-442.85 13.84,-509.97 -39.18,-207.45 -152.92,-343.4 -327.7,-445.72l-413.68 -238.59c-75.14,-45.42 -84.93,-57.92 -210.5,32.75l155.93 96.96c6.55,3.59 12.25,6.4 17.92,9.46 145.37,78.5 403.46,217.65 494.19,326.04 180.7,215.9 153.58,389.39 151.28,676.08z"/>
  <path class="fil0" d="M1141 851.75c183.38,208.8 154.41,403.02 154.6,665.71 0.13,186.99 -32.55,159.06 -58.62,214.26 233.63,-96.85 195.92,-234.3 196.25,-456.47 0.36,-242.34 -27.14,-353.28 -149.17,-501.25 -98.88,-119.91 -427.36,-285.23 -595.91,-382.23 -40.98,-23.59 -63.33,-51.88 -116.26,-26.13l-96.12 61.97 346.82 201.55c128.39,70.43 233.18,125.55 318.41,222.59z"/>
  <path class="fil0" d="M313.98 697.73c-13.05,-11.99 -73.58,-50.39 -90.78,-57.64 -56.79,-23.96 -44.39,31.4 -43.82,85.37l-1.28 577.73c-0.49,283.04 -40.33,218.5 213.41,362.64l184.28 104.81c68.27,38.98 120.49,75.72 183.74,102.56 89.09,37.82 177.94,16.54 196.86,-57.7 -125.55,-33.82 -431.02,-233.45 -570.6,-310.45 -72.12,-39.79 -72.54,-56.28 -71.44,-155.27 1.56,-140.53 9.66,-565.17 -0.37,-652.06z"/>
  <path class="fil0" d="M457.45 790.24c9.69,102.29 1.45,247.95 0.57,354.59 -1.24,150.06 -33.89,216.84 75.65,276.96 58.09,31.88 416.47,249.33 450.88,251.94l-2.52 -146.99c-103.35,-71.68 -225.5,-132.32 -330.8,-194.58 -81.1,-47.95 -54.33,-105.35 -54.74,-215.27 -0.31,-82.79 5.11,-178.44 -1.87,-259.39 -25.43,-17.72 -102.15,-65.48 -137.15,-67.26z"/>
  <path class="fil1" d="M1659.53 466.06l299.37 0c71.55,0 134.78,13.65 189.69,40.95 54.92,27.3 97.59,65.74 128.04,115.32 30.44,49.58 45.66,107.32 45.66,173.22 0,65.9 -15.22,123.64 -45.66,173.22 -30.44,49.58 -73.12,88.02 -128.04,115.32 -54.91,27.3 -118.15,40.95 -189.69,40.95l-299.37 0 0 -658.99zm291.84 533.78c65.9,0 118.46,-18.36 157.69,-55.07 39.22,-36.72 58.84,-86.46 58.84,-149.22 0,-62.76 -19.62,-112.5 -58.84,-149.21 -39.23,-36.72 -91.79,-55.07 -157.69,-55.07l-139.33 0 0 408.58 139.33 0zm858.2 136.51c-68.41,0 -130.07,-14.75 -184.99,-44.25 -54.91,-29.5 -97.91,-70.14 -128.98,-121.91 -31.07,-51.78 -46.6,-109.99 -46.6,-174.64 0,-64.64 15.53,-122.85 46.6,-174.63 31.06,-51.78 74.06,-92.41 128.98,-121.91 54.91,-29.5 116.58,-44.25 184.99,-44.25 68.41,0 129.91,14.75 184.52,44.25 54.6,29.5 97.59,70.13 128.98,121.91 31.38,51.78 47.07,109.99 47.07,174.63 0,64.65 -15.69,122.86 -47.07,174.64 -31.38,51.77 -74.37,92.41 -128.98,121.91 -54.6,29.49 -116.11,44.25 -184.52,44.25zm0 -129.92c38.91,0 74.06,-8.94 105.44,-26.83 31.38,-17.89 56.01,-42.84 73.9,-74.85 17.89,-32.01 26.83,-68.41 26.83,-109.21 0,-40.79 -8.94,-77.19 -26.83,-109.2 -17.89,-32.01 -42.52,-56.96 -73.9,-74.85 -31.38,-17.88 -66.53,-26.83 -105.44,-26.83 -38.91,0 -74.06,8.95 -105.44,26.83 -31.38,17.88 -56.02,42.84 -73.9,74.85 -17.89,32.01 -26.83,68.41 -26.83,109.2 0,40.8 8.94,77.2 26.83,109.21 17.88,32.01 42.52,56.95 73.9,74.85 31.38,17.88 66.52,26.83 105.44,26.83zm528.69 -540.37l152.51 0 0 534.72 330.44 0 0 124.27 -482.95 0 0 -658.99zm1105.79 316.31c37.66,11.93 67.15,31.85 88.49,59.78 21.34,27.93 32.01,62.29 32.01,103.08 0,57.74 -22.44,102.14 -67.31,133.21 -44.87,31.07 -110.3,46.6 -196.28,46.6l-340.79 0 0 -658.99 321.97 0c80.33,0 141.99,15.38 184.99,46.13 42.99,30.75 64.48,72.49 64.48,125.2 0,32.01 -7.69,60.57 -23.06,85.67 -15.38,25.1 -36.88,44.87 -64.49,59.31zm-332.32 -201.46l0 155.33 151.57 0c37.66,0 66.21,-6.59 85.67,-19.77 19.46,-13.18 29.19,-32.63 29.19,-58.36 0,-25.73 -9.73,-45.03 -29.19,-57.9 -19.45,-12.87 -48.01,-19.3 -85.67,-19.3l-151.57 0zm177.92 429.29c40.17,0 70.45,-6.59 90.85,-19.77 20.4,-13.18 30.6,-33.58 30.6,-61.19 0,-54.61 -40.48,-81.9 -121.44,-81.9l-177.92 0 0 162.87 177.92 0zm1032.36 -544.14l0 452.82c0,99.16 -27.62,175.26 -82.85,228.3 -55.22,53.03 -131.48,79.54 -228.76,79.54 -55.86,0 -107.01,-7.69 -153.45,-23.06 -46.44,-15.38 -85.98,-37.19 -118.62,-65.43l59.32 -112.97c59.62,48.33 129.28,72.49 208.99,72.49 55.23,0 96.18,-13.96 122.85,-41.89 26.68,-27.93 40.01,-71.07 40.01,-129.45l0 -40.48c-43.93,53.98 -106.06,80.96 -186.4,80.96 -83.47,0 -147.64,-23.69 -192.52,-71.08 -44.87,-47.38 -67.31,-115.64 -67.31,-204.75l0 -225 152.51 0 0 215.58c0,51.46 12.24,90.37 36.71,116.73 24.48,26.36 59,39.54 103.56,39.54 47.07,0 84.41,-13.81 112.02,-41.42 27.62,-27.61 41.42,-69.35 41.42,-125.2l0 -205.23 152.51 0z"/>
  <path class="fil1" d="M2040.6 1491.42l-136.59 323.71 -96.87 0 -135.99 -323.71 96.87 0 89.66 220.22 92.66 -220.22 90.25 0zm127.1 0l93.86 0 0 323.71 -93.86 0 0 -323.71zm46.93 -45.13c-17.25,0 -31.29,-5.01 -42.12,-15.04 -10.83,-10.03 -16.25,-22.47 -16.25,-37.31 0,-14.84 5.42,-27.28 16.25,-37.31 10.83,-10.03 24.87,-15.04 42.12,-15.04 17.25,0 31.29,4.82 42.12,14.44 10.83,9.63 16.25,21.66 16.25,36.1 0,15.64 -5.42,28.58 -16.25,38.81 -10.83,10.23 -24.87,15.34 -42.12,15.34zm331.67 373.66c-26.87,0 -53.15,-3.31 -78.82,-9.93 -25.67,-6.62 -46.13,-14.95 -61.37,-24.97l31.29 -67.39c14.44,9.23 31.89,16.75 52.35,22.57 20.46,5.81 40.51,8.72 60.17,8.72 39.71,0 59.57,-9.83 59.57,-29.48 0,-9.22 -5.42,-15.85 -16.25,-19.86 -10.83,-4.01 -27.48,-7.42 -49.94,-10.23 -26.48,-4.01 -48.34,-8.62 -65.59,-13.84 -17.25,-5.21 -32.19,-14.44 -44.83,-27.68 -12.63,-13.23 -18.95,-32.09 -18.95,-56.56 0,-20.46 5.91,-38.61 17.75,-54.45 11.83,-15.84 29.09,-28.18 51.75,-37 22.66,-8.83 49.44,-13.23 80.32,-13.23 22.86,0 45.63,2.5 68.29,7.52 22.67,5.01 41.42,11.93 56.26,20.75l-31.29 66.79c-28.48,-16.04 -59.57,-24.07 -93.27,-24.07 -20.06,0 -35.1,2.81 -45.12,8.42 -10.03,5.62 -15.05,12.83 -15.05,21.66 0,10.03 5.42,17.05 16.25,21.06 10.83,4.01 28.08,7.82 51.75,11.43 26.48,4.41 48.14,9.13 64.99,14.14 16.84,5.01 31.48,14.13 43.92,27.38 12.44,13.23 18.65,31.69 18.65,55.35 0,20.06 -6.01,37.91 -18.05,53.55 -12.04,15.65 -29.58,27.78 -52.65,36.4 -23.07,8.62 -50.44,12.94 -82.13,12.94zm299.18 -328.53l93.86 0 0 323.71 -93.86 0 0 -323.71zm46.93 -45.13c-17.25,0 -31.29,-5.01 -42.12,-15.04 -10.83,-10.03 -16.25,-22.47 -16.25,-37.31 0,-14.84 5.42,-27.28 16.25,-37.31 10.83,-10.03 24.87,-15.04 42.12,-15.04 17.25,0 31.29,4.82 42.12,14.44 10.83,9.63 16.25,21.66 16.25,36.1 0,15.64 -5.42,28.58 -16.25,38.81 -10.83,10.23 -24.87,15.34 -42.12,15.34zm376.8 373.66c-34.1,0 -64.68,-7.12 -91.76,-21.36 -27.08,-14.24 -48.24,-33.99 -63.47,-59.26 -15.25,-25.27 -22.87,-53.95 -22.87,-86.05 0,-32.09 7.62,-60.77 22.87,-86.04 15.24,-25.27 36.4,-45.02 63.47,-59.26 27.08,-14.25 57.66,-21.36 91.76,-21.36 34.1,0 64.58,7.11 91.46,21.36 26.87,14.24 47.93,33.99 63.18,59.26 15.24,25.27 22.86,53.95 22.86,86.04 0,32.09 -7.62,60.77 -22.86,86.05 -15.25,25.27 -36.31,45.02 -63.18,59.26 -26.87,14.24 -57.36,21.36 -91.46,21.36zm0 -77.02c24.07,0 43.82,-8.12 59.27,-24.37 15.44,-16.25 23.17,-38 23.17,-65.28 0,-27.28 -7.73,-49.04 -23.17,-65.28 -15.44,-16.25 -35.2,-24.37 -59.27,-24.37 -24.07,0 -43.93,8.12 -59.57,24.37 -15.64,16.25 -23.46,38.01 -23.46,65.28 0,27.28 7.82,49.04 23.46,65.28 15.65,16.25 35.5,24.37 59.57,24.37zm525.42 -256.32c40.12,0 72.51,12.03 97.18,36.1 24.67,24.07 37,59.77 37,107.1l0 185.32 -93.86 0 0 -170.88c0,-25.68 -5.62,-44.83 -16.85,-57.46 -11.23,-12.64 -27.47,-18.96 -48.74,-18.96 -23.67,0 -42.52,7.32 -56.56,21.96 -14.04,14.64 -21.06,36.41 -21.06,65.29l0 160.05 -93.86 0 0 -323.71 89.65 0 0 37.91c12.44,-13.64 27.88,-24.17 46.33,-31.59 18.46,-7.42 38.71,-11.13 60.77,-11.13z"/>
  <rect class="fil2" x="-0" y="-0" width="5472.24" height="2182.08"/>
 </g>
</svg>
