<?xml version="1.0" encoding="UTF-8"?>
<!DOCTYPE svg PUBLIC "-//W3C//DTD SVG 1.1//EN" "http://www.w3.org/Graphics/SVG/1.1/DTD/svg11.dtd">
<!-- Creator: CorelDRAW 2019 (64-Bit) -->
<svg xmlns="http://www.w3.org/2000/svg" xml:space="preserve" width="133.189mm" height="41.1427mm" version="1.1" style="shape-rendering:geometricPrecision; text-rendering:geometricPrecision; image-rendering:optimizeQuality; fill-rule:evenodd; clip-rule:evenodd"
viewBox="0 0 3781.58 1168.15"
 xmlns:xlink="http://www.w3.org/1999/xlink"
 xmlns:xodm="http://www.corel.com/coreldraw/odm/2003">
 <defs>
  <style type="text/css">
   <![CDATA[
    .fil0 {fill:none}
    .fil2 {fill:#FEFEFE}
    .fil1 {fill:#FEFEFE;fill-rule:nonzero}
    .fil3 {fill:url(#id1)}
   ]]>
  </style>
   <clipPath id="id0">
    <path d="M281.64 450.01l-214.08 -106.42 0 688.27 241 0c72.21,0 132.89,-5.34 181.82,-16.02 49.14,-10.68 94.43,-27.99 136.31,-52.13 73.5,-42.3 129.26,-95.93 167.08,-161.31 38.03,-65.16 57.04,-140.16 57.04,-224.34 0,-140.58 -48.07,-251.47 -144,-332.45 -95.93,-80.98 -228.82,-121.36 -398.25,-121.36l-241 0 0 193.27 214.08 0.31 0 0 47.64 0c94.65,0 168.79,23.07 222.2,69.44 53.41,46.36 80.12,109.82 80.12,190.79 0,80.98 -26.71,144.22 -80.12,190.15 -53.41,45.94 -127.55,68.8 -222.2,68.8l-47.64 0 0 -386.99z"/>
   </clipPath>
  <linearGradient id="id1" gradientUnits="userSpaceOnUse" x1="-405.67" y1="2706.04" x2="1115.59" y2="-1615.01">
   <stop offset="0" style="stop-opacity:1; stop-color:#BA7802"/>
   <stop offset="0.0509804" style="stop-opacity:1; stop-color:#D19B2D"/>
   <stop offset="0.121569" style="stop-opacity:1; stop-color:#EBC15D"/>
   <stop offset="0.14902" style="stop-opacity:1; stop-color:#F5D06F"/>
   <stop offset="0.278431" style="stop-opacity:1; stop-color:#DB9F34"/>
   <stop offset="0.329412" style="stop-opacity:1; stop-color:#CE8817"/>
   <stop offset="0.380392" style="stop-opacity:1; stop-color:#DA9D31"/>
   <stop offset="0.458824" style="stop-opacity:1; stop-color:#E9B953"/>
   <stop offset="0.521569" style="stop-opacity:1; stop-color:#F2CA68"/>
   <stop offset="0.560784" style="stop-opacity:1; stop-color:#F5D06F"/>
   <stop offset="0.611765" style="stop-opacity:1; stop-color:#EBC15D"/>
   <stop offset="0.709804" style="stop-opacity:1; stop-color:#D19B2D"/>
   <stop offset="0.788235" style="stop-opacity:1; stop-color:#BA7802"/>
   <stop offset="0.929412" style="stop-opacity:1; stop-color:#F5D06F"/>
   <stop offset="1" style="stop-opacity:1; stop-color:#F5D06F"/>
  </linearGradient>
 </defs>
 <g id="图层_x0020_1">
  <metadata id="CorelCorpID_0Corel-Layer"/>
  <rect class="fil0" x="-0" y="-0" width="3781.58" height="1168.15"/>
  <path class="fil1" d="M938.67 157.48l195.74 0c46.78,0 88.13,8.92 124.03,26.77 35.91,17.85 63.81,42.99 83.72,75.41 19.9,32.42 29.85,70.17 29.85,113.26 0,43.09 -9.95,80.84 -29.85,113.26 -19.9,32.42 -47.81,57.55 -83.72,75.41 -35.91,17.85 -77.25,26.78 -124.03,26.78l-195.74 0 0 -430.88zm190.82 349.02c43.09,0 77.46,-12 103.1,-36.01 25.65,-24.01 38.47,-56.53 38.47,-97.57 0,-41.04 -12.82,-73.56 -38.47,-97.56 -25.65,-24.01 -60.02,-36.01 -103.1,-36.01l-91.1 0 0 267.15 91.1 0zm561.13 89.26c-44.73,0 -85.05,-9.64 -120.96,-28.93 -35.91,-19.29 -64.02,-45.86 -84.33,-79.71 -20.31,-33.86 -30.47,-71.92 -30.47,-114.19 0,-42.27 10.16,-80.33 30.47,-114.18 20.31,-33.86 48.42,-60.43 84.33,-79.71 35.91,-19.29 76.23,-28.93 120.96,-28.93 44.73,0 84.95,9.64 120.65,28.93 35.7,19.29 63.81,45.86 84.33,79.71 20.52,33.86 30.78,71.92 30.78,114.18 0,42.27 -10.26,80.33 -30.78,114.19 -20.52,33.86 -48.63,60.43 -84.33,79.71 -35.7,19.29 -75.92,28.93 -120.65,28.93zm0 -84.95c25.44,0 48.42,-5.85 68.94,-17.54 20.52,-11.7 36.62,-28.01 48.32,-48.94 11.7,-20.93 17.54,-44.73 17.54,-71.4 0,-26.67 -5.85,-50.47 -17.54,-71.4 -11.69,-20.93 -27.8,-37.24 -48.32,-48.94 -20.52,-11.69 -43.5,-17.54 -68.94,-17.54 -25.44,0 -48.42,5.85 -68.94,17.54 -20.52,11.69 -36.63,28.01 -48.32,48.94 -11.69,20.93 -17.54,44.73 -17.54,71.4 0,26.67 5.85,50.48 17.54,71.4 11.69,20.93 27.8,37.24 48.32,48.94 20.52,11.69 43.5,17.54 68.94,17.54zm345.69 -353.32l99.72 0 0 349.63 216.06 0 0 81.25 -315.78 0 0 -430.88zm723.03 206.82c24.62,7.8 43.91,20.83 57.86,39.09 13.95,18.26 20.93,40.73 20.93,67.4 0,37.75 -14.67,66.79 -44.01,87.1 -29.34,20.31 -72.12,30.47 -128.34,30.47l-222.83 0 0 -430.88 210.52 0c52.53,0 92.84,10.05 120.96,30.16 28.11,20.11 42.16,47.4 42.16,81.87 0,20.93 -5.03,39.6 -15.08,56.02 -10.05,16.41 -24.11,29.34 -42.17,38.78zm-217.29 -131.73l0 101.57 99.1 0c24.62,0 43.29,-4.31 56.01,-12.93 12.72,-8.62 19.08,-21.34 19.08,-38.16 0,-16.83 -6.36,-29.45 -19.08,-37.86 -12.72,-8.41 -31.39,-12.62 -56.01,-12.62l-99.1 0zm116.34 280.69c26.26,0 46.06,-4.31 59.4,-12.93 13.34,-8.62 20.01,-21.96 20.01,-40.01 0,-35.7 -26.47,-53.55 -79.41,-53.55l-116.34 0 0 106.49 116.34 0zm675.01 -355.79l0 296.08c0,64.84 -18.06,114.6 -54.17,149.27 -36.11,34.68 -85.97,52.01 -149.58,52.01 -36.52,0 -69.97,-5.03 -100.33,-15.08 -30.37,-10.05 -56.22,-24.32 -77.56,-42.78l38.78 -73.87c38.98,31.6 84.53,47.4 136.65,47.4 36.11,0 62.89,-9.13 80.33,-27.39 17.44,-18.26 26.16,-46.47 26.16,-84.64l0 -26.47c-28.72,35.29 -69.35,52.94 -121.88,52.94 -54.58,0 -96.54,-15.49 -125.88,-46.48 -29.34,-30.98 -44.01,-75.61 -44.01,-133.88l0 -147.12 99.72 0 0 140.96c0,33.65 8,59.09 24.01,76.33 16,17.23 38.57,25.85 67.71,25.85 30.78,0 55.2,-9.03 73.25,-27.08 18.06,-18.05 27.08,-45.35 27.08,-81.87l0 -134.19 99.72 0z"/>
  <path class="fil2" d="M281.64 450.01l-214.08 -106.42 0 688.27 241 0c72.21,0 132.89,-5.34 181.82,-16.02 49.14,-10.68 94.43,-27.99 136.31,-52.13 73.5,-42.3 129.26,-95.93 167.08,-161.31 38.03,-65.16 57.04,-140.16 57.04,-224.34 0,-140.58 -48.07,-251.47 -144,-332.45 -95.93,-80.98 -228.82,-121.36 -398.25,-121.36l-241 0 0 193.27 214.08 0.31 0 0 47.64 0c94.65,0 168.79,23.07 222.2,69.44 53.41,46.36 80.12,109.82 80.12,190.79 0,80.98 -26.71,144.22 -80.12,190.15 -53.41,45.94 -127.55,68.8 -222.2,68.8l-47.64 0 0 -386.99z"/>
  <g style="clip-path:url(#id0)">
   <g id="_1885888516384">
    <path id="1" class="fil3" d="M1315.68 1017.16c0,90 -21.02,162.29 -46.24,162.29l-1860.67 0 0 -1091.78 1860.67 0c25.22,0 46.24,73.77 46.24,162.29l0 767.2z"/>
   </g>
  </g>
  <path class="fil0" d="M281.64 450.01l-214.08 -106.42 0 688.27 241 0c72.21,0 132.89,-5.34 181.82,-16.02 49.14,-10.68 94.43,-27.99 136.31,-52.13 73.5,-42.3 129.26,-95.93 167.08,-161.31 38.03,-65.16 57.04,-140.16 57.04,-224.34 0,-140.58 -48.07,-251.47 -144,-332.45 -95.93,-80.98 -228.82,-121.36 -398.25,-121.36l-241 0 0 193.27 214.08 0.31 0 0 47.64 0c94.65,0 168.79,23.07 222.2,69.44 53.41,46.36 80.12,109.82 80.12,190.79 0,80.98 -26.71,144.22 -80.12,190.15 -53.41,45.94 -127.55,68.8 -222.2,68.8l-47.64 0 0 -386.99z"/>
  <path class="fil1" d="M1187.83 827.92l-89.31 211.66 -63.34 0 -88.91 -211.66 63.34 0 58.62 143.99 60.59 -143.99 59.01 0zm83.11 0l61.37 0 0 211.66 -61.37 0 0 -211.66zm30.69 -29.51c-11.28,0 -20.46,-3.28 -27.54,-9.84 -7.08,-6.56 -10.62,-14.69 -10.62,-24.39 0,-9.7 3.54,-17.84 10.62,-24.39 7.08,-6.56 16.26,-9.84 27.54,-9.84 11.28,0 20.46,3.15 27.54,9.44 7.08,6.29 10.62,14.16 10.62,23.61 0,10.23 -3.54,18.69 -10.62,25.37 -7.08,6.69 -16.26,10.03 -27.54,10.03zm216.87 244.32c-17.57,0 -34.75,-2.17 -51.54,-6.49 -16.79,-4.33 -30.16,-9.77 -40.13,-16.33l20.46 -44.07c9.44,6.03 20.85,10.95 34.23,14.76 13.38,3.8 26.49,5.7 39.34,5.7 25.97,0 38.95,-6.43 38.95,-19.28 0,-6.03 -3.54,-10.36 -10.62,-12.98 -7.08,-2.62 -17.97,-4.85 -32.65,-6.69 -17.31,-2.62 -31.6,-5.64 -42.88,-9.05 -11.28,-3.41 -21.05,-9.44 -29.31,-18.1 -8.26,-8.65 -12.39,-20.98 -12.39,-36.98 0,-13.38 3.87,-25.24 11.6,-35.6 7.74,-10.36 19.02,-18.43 33.84,-24.2 14.82,-5.77 32.33,-8.65 52.52,-8.65 14.95,0 29.83,1.64 44.65,4.92 14.82,3.28 27.08,7.8 36.79,13.57l-20.46 43.67c-18.62,-10.49 -38.95,-15.74 -60.98,-15.74 -13.11,0 -22.95,1.84 -29.51,5.51 -6.56,3.67 -9.84,8.39 -9.84,14.16 0,6.56 3.54,11.15 10.62,13.77 7.08,2.62 18.36,5.12 33.84,7.48 17.31,2.88 31.47,5.97 42.49,9.24 11.02,3.28 20.59,9.24 28.72,17.9 8.13,8.65 12.19,20.72 12.19,36.19 0,13.11 -3.93,24.79 -11.8,35.01 -7.87,10.23 -19.34,18.16 -34.43,23.8 -15.08,5.64 -32.98,8.46 -53.7,8.46zm195.62 -214.81l61.37 0 0 211.66 -61.37 0 0 -211.66zm30.69 -29.51c-11.28,0 -20.46,-3.28 -27.54,-9.84 -7.08,-6.56 -10.62,-14.69 -10.62,-24.39 0,-9.7 3.54,-17.84 10.62,-24.39 7.08,-6.56 16.26,-9.84 27.54,-9.84 11.28,0 20.46,3.15 27.54,9.44 7.08,6.29 10.62,14.16 10.62,23.61 0,10.23 -3.54,18.69 -10.62,25.37 -7.08,6.69 -16.26,10.03 -27.54,10.03zm246.37 244.32c-22.29,0 -42.29,-4.66 -60,-13.97 -17.7,-9.31 -31.54,-22.23 -41.5,-38.75 -9.97,-16.52 -14.95,-35.28 -14.95,-56.26 0,-20.98 4.98,-39.74 14.95,-56.26 9.97,-16.52 23.8,-29.44 41.5,-38.75 17.71,-9.31 37.7,-13.97 60,-13.97 22.29,0 42.23,4.65 59.8,13.97 17.57,9.31 31.34,22.23 41.31,38.75 9.97,16.52 14.95,35.28 14.95,56.26 0,20.98 -4.98,39.74 -14.95,56.26 -9.97,16.52 -23.74,29.44 -41.31,38.75 -17.57,9.31 -37.51,13.97 -59.8,13.97zm0 -50.36c15.74,0 28.65,-5.31 38.75,-15.93 10.1,-10.62 15.15,-24.85 15.15,-42.69 0,-17.84 -5.05,-32.06 -15.15,-42.69 -10.1,-10.62 -23.02,-15.93 -38.75,-15.93 -15.74,0 -28.72,5.31 -38.95,15.93 -10.23,10.62 -15.34,24.85 -15.34,42.69 0,17.84 5.12,32.06 15.34,42.69 10.23,10.62 23.21,15.93 38.95,15.93zm343.55 -167.6c26.23,0 47.41,7.87 63.54,23.6 16.13,15.74 24.19,39.08 24.19,70.03l0 121.17 -61.37 0 0 -111.73c0,-16.79 -3.67,-29.31 -11.02,-37.57 -7.34,-8.26 -17.96,-12.39 -31.87,-12.39 -15.48,0 -27.8,4.79 -36.98,14.36 -9.18,9.57 -13.77,23.8 -13.77,42.69l0 104.65 -61.37 0 0 -211.66 58.62 0 0 24.79c8.13,-8.92 18.23,-15.8 30.29,-20.66 12.07,-4.85 25.31,-7.28 39.74,-7.28z"/>
 </g>
</svg>
